<?xml version="1.0" standalone="no"?>
<!DOCTYPE svg PUBLIC "-//W3C//DTD SVG 1.1//EN" "http://www.w3.org/Graphics/SVG/1.1/DTD/svg11.dtd" >
<svg xmlns="http://www.w3.org/2000/svg" xmlns:xlink="http://www.w3.org/1999/xlink" version="1.1">
<metadata>
Created by FontForge 20201107 at Sat Feb  4 03:49:50 2012
 By 
Copyright (c) 2011 Fontstage (info@fontstage.com), with Reserved Font Name "Felipa"
</metadata>
<defs>
<font id="Felipa-Regular" horiz-adv-x="410" >
  <font-face 
    font-family="Felipa"
    font-weight="400"
    font-stretch="normal"
    units-per-em="1000"
    panose-1="2 0 5 3 0 0 0 2 0 3"
    ascent="800"
    descent="-200"
    x-height="512"
    cap-height="751"
    bbox="-212 -319 1016 966"
    underline-thickness="50"
    underline-position="-100"
    unicode-range="U+0020-FB04"
  />
<missing-glyph horiz-adv-x="250" 
 />
    <glyph glyph-name=".notdef" horiz-adv-x="250" 
 />
    <glyph glyph-name=".null" horiz-adv-x="0" 
 />
    <glyph glyph-name="nonmarkingreturn" horiz-adv-x="333" 
 />
    <glyph glyph-name="space" unicode=" " horiz-adv-x="256" 
 />
    <glyph glyph-name="exclam" unicode="!" horiz-adv-x="358" 
d="M230 819l84 52q-24 -172 -38 -257t-47 -204t-85 -238l-25 10q93 379 111 637zM40 49l72 69q31 -24 67 -81l-70 -64q-1 1 -26.5 31t-42.5 45z" />
    <glyph glyph-name="quotedbl" unicode="&#x22;" horiz-adv-x="370" 
d="M117 880l68 -19q-15 -59 -43.5 -127.5t-34.5 -84.5l-14 15q8 166 24 216zM287 880l68 -19q-15 -59 -43.5 -127.5t-34.5 -84.5l-14 15q8 166 24 216z" />
    <glyph glyph-name="numbersign" unicode="#" horiz-adv-x="630" 
d="M485 639l-26 -187h151l-54 -54h-104l-26 -185h167l-54 -54h-120l-24 -177l-58 -54l31 231h-118l-24 -177l-59 -54l31 231h-141l54 54h95l25 185h-174l54 54h128l18 133l59 54l-26 -187h119l18 133zM283 398l-26 -185h119l25 185h-118z" />
    <glyph glyph-name="dollar" unicode="$" horiz-adv-x="351" 
d="M252 504q69 0 69 -12q-25 -35 -75 -57q-4 30 -49 30q-27 0 -56.5 -10.5t-41.5 -24.5q0 -28 41.5 -85.5t82.5 -121.5t41 -103t-29.5 -67t-75.5 -44l-20 -126l-47 -32l21 147q-24 -2 -45.5 -2t-52 12.5t-30.5 24.5l51 46q43 -37 96 -37q31 0 67 14q0 53 -23.5 105t-51.5 85
q-75 88 -75 124q0 97 126 126l17 110l47 32l-19 -135q11 1 32 1z" />
    <glyph glyph-name="percent" unicode="%" horiz-adv-x="805" 
d="M660 284q-20 35 -63.5 35t-74 -47.5t-30.5 -108.5q0 -111 74 -111q114 0 114 158q0 39 -20 74zM522 311.5q42 36.5 100 36.5t87 -40t29 -108t-61.5 -129t-134.5 -61q-42 0 -71.5 35.5t-29.5 86.5t19.5 97t61.5 82.5zM258 717q-20 35 -63.5 35t-74 -47.5t-30.5 -108.5
q0 -111 74 -111q114 0 114 158q0 39 -20 74zM120 744.5q42 36.5 100 36.5t87 -40t29 -108t-61.5 -129t-134.5 -61q-42 0 -71.5 35.5t-29.5 86.5t19.5 97t61.5 82.5zM639 818l49 -50q-78 -129 -267.5 -365.5t-339.5 -396.5l-19 21q15 20 159 204t237.5 315t180.5 272z" />
    <glyph glyph-name="ampersand" unicode="&#x26;" horiz-adv-x="698" 
d="M71 449q33 91 82.5 156t106.5 105.5t98.5 40.5t64 -20t22.5 -58q0 -73 -169 -176q144 13 267 13q5 0 134 -3l-61 -58q-26 2 -137 2q-3 -17 -16 -73q-28 -121 -28 -185q0 -125 81 -141q49 34 115.5 106.5t125.5 152.5l9 -6q-80 -112 -163 -202.5t-138 -112.5
q-25 0 -54.5 29.5t-39.5 90.5q-81 -97 -141 -118q-54 0 -93 23t-59 63q-40 79 -40 179.5t33 191.5zM368 157q0 158 54 293q-153 0 -286 -29q-5 -2 -13 -6q-14 -59 -14 -116q0 -120 37 -176t107 -68q44 10 115 80v22zM133 451q67 31 75 39h1q158 89 161 151q0 24 -13.5 38
t-39.5 14q-44 0 -98.5 -71.5t-85.5 -170.5z" />
    <glyph glyph-name="quotesingle" unicode="'" horiz-adv-x="220" 
d="M143 880l68 -19q-15 -59 -43.5 -127.5t-34.5 -84.5l-14 15q8 166 24 216z" />
    <glyph glyph-name="parenleft" unicode="(" horiz-adv-x="414" 
d="M176 252q0 -234 125 -320l-13 -15q-98 59 -144 178q-35 87 -35 190q0 38 5 78q17 139 90 266.5t174 186.5l11 -14q-73 -57 -133 -189q-80 -178 -80 -361z" />
    <glyph glyph-name="parenright" unicode=")" horiz-adv-x="385" 
d="M243 481q0 234 -125 320l13 15q98 -59 145 -178q34 -87 34 -190q0 -38 -5 -78q-17 -139 -90 -266.5t-174 -186.5l-11 14q73 57 132 189q81 178 81 361z" />
    <glyph glyph-name="asterisk" unicode="*" horiz-adv-x="479" 
d="M316 769l-37 -125l7 -7q87 62 117 80l4 -71l-115 -40l-4 -14l92 -65l-50 -35l-63 69l-10 -4l-20 -102l-56 -16l41 120l-6 7l-118 -55l-11 18l118 63l5 18q-33 23 -106 82l60 29l71 -82l11 6l10 99z" />
    <glyph glyph-name="plus" unicode="+" horiz-adv-x="621" 
d="M340 346h243l-54 -54h-189v-190l-54 -54v244h-238l54 54h184v183l54 54v-237z" />
    <glyph glyph-name="comma" unicode="," horiz-adv-x="272" 
d="M60 66q52 65 60 67q21 -17 41 -44t26 -39q-2 -15 -28 -62t-70 -103l-15 11q53 71 53 87q-6 10 -33.5 38.5t-33.5 44.5z" />
    <glyph glyph-name="hyphen" unicode="-" horiz-adv-x="400" 
d="M81 346q138 0 293 32l-31 -54q-138 -31 -289 -31h-9l28 53h8z" />
    <glyph glyph-name="period" unicode="." horiz-adv-x="270" 
d="M133 134q31 -24 67 -81l-70 -64q-1 1 -26.5 31t-42.5 45z" />
    <glyph glyph-name="slash" unicode="/" horiz-adv-x="436" 
d="M375 838l49 -50q-51 -169 -181 -498t-146 -373l-41 54q20 52 92 229q156 384 227 638z" />
    <glyph glyph-name="zero" unicode="0" horiz-adv-x="529" 
d="M384 426q-42 51 -111 51t-127 -77t-58 -162t43 -134t106 -51q65 1 110 43q79 75 79 212q0 67 -42 118zM317 520q84 0 125 -51t41 -131q0 -136 -88.5 -236t-206.5 -100q-74 0 -110 51.5t-36 131.5q0 136 80.5 235.5t194.5 99.5z" />
    <glyph glyph-name="one" unicode="1" horiz-adv-x="318" 
d="M219 519q15 0 15 -31.5t-8.5 -85.5t-29 -174.5t-29.5 -182.5l-49 -61q-7 5 -7 22q0 83 28 240.5t34 206.5q-23 -12 -101 -69l-8 12q25 27 73.5 65t81.5 58z" />
    <glyph glyph-name="two" unicode="2" horiz-adv-x="440" 
d="M242 513q47 0 79 -25t32 -78q0 -84 -71 -173.5t-173 -167.5l2 -6h174q78 0 133 39l8 -15q-65 -55 -109 -88l-324 1l-7 15q32 17 88 64q111 95 167.5 166.5t56.5 128.5q0 87 -89 87q-67 0 -143 -40l-11 16q101 76 187 76z" />
    <glyph glyph-name="three" unicode="3" horiz-adv-x="423" 
d="M42 440q125 74 177.5 74t85 -31t32.5 -92q0 -42 -34 -88.5t-83 -79.5l1 -3q5 1 14 1q48 0 76.5 -34t28.5 -75q0 -72 -39.5 -126t-91.5 -77.5t-103 -23.5q-101 0 -166 40l36 63q94 -48 162 -48t96 16q45 47 45 102.5t-32.5 90t-93.5 37.5l-10 17l35 23q30 20 48 34t36 40
t18 62.5t-26.5 70t-74 33.5t-126.5 -45z" />
    <glyph glyph-name="four" unicode="4" horiz-adv-x="461" 
d="M119 62l53 -1q34 0 59 1q56 331 62 379l-2 3q-35 -87 -112 -201.5t-141 -180.5l3 -3q31 3 78 3zM211 -172q-8 6 -8 22.5t21 166.5h-201q-24 0 -56 -5l-7 14q46 35 154.5 186.5t149.5 243.5q31 38 73 63q17 0 17 -31q0 -111 -64 -424q87 0 154 13l5 -15q-60 -35 -167 -43
q-12 -73 -23 -131z" />
    <glyph glyph-name="five" unicode="5" horiz-adv-x="463" 
d="M191 514l126 1q30 0 108 -2q-28 -26 -60 -61q-72 -3 -117.5 -3t-73.5 5l-6 -4q-34 -135 -50 -269l3 -5q63 38 123.5 38t98 -40t37.5 -109.5t-39.5 -123.5t-91.5 -77t-97.5 -23t-90 11t-73.5 29l42 61q98 -47 176 -47q50 0 82.5 29t32.5 98q0 131 -137 131q-42 0 -101 -17
l-8 12q19 200 50 312q11 14 31.5 31t34.5 23z" />
    <glyph glyph-name="six" unicode="6" horiz-adv-x="503" 
d="M456 642q32 0 55 -9l-58 -68q-21 4 -46 4q-144 0 -222.5 -94.5t-78.5 -243.5q0 -86 43 -134.5t113 -48.5q53 0 83 44.5t30 100.5q0 126 -120 126q-43 0 -99 -33l-7 17q31 29 75.5 51t81.5 22q59 0 89.5 -38.5t30.5 -99.5q0 -80 -65.5 -163.5t-145.5 -83.5t-124 58
t-44 139t30.5 159t82.5 144t130.5 108.5t165.5 42.5z" />
    <glyph glyph-name="seven" unicode="7" horiz-adv-x="422" 
d="M59 508q124 -9 199.5 -9t130.5 4l8 -10q-76 -145 -141 -322t-86 -280l-80 -44l-9 10q105 361 249 569l-6 13q-30 -1 -114.5 -7.5t-127 -6.5t-61.5 2z" />
    <glyph glyph-name="eight" unicode="8" horiz-adv-x="481" 
d="M115 507q0 56 63.5 100.5t129.5 44.5q43 0 69 -23t26 -70q0 -27 -20 -60t-38.5 -52t-59.5 -60q65 -51 96.5 -94t31.5 -109.5t-66.5 -126t-141.5 -59.5t-121.5 42.5t-46.5 104.5t42.5 112t122.5 108q-47 47 -67 76.5t-20 65.5zM326 75q35 35 35 86t-30.5 87.5t-102.5 93.5
q-60 -45 -91.5 -85.5t-31.5 -94t35 -88t93 -34.5t93 35zM316.5 471.5q24.5 36.5 24.5 69.5t-25.5 52.5t-61 19.5t-62.5 -21.5t-27 -58.5q0 -46 94 -124q33 26 57.5 62.5z" />
    <glyph glyph-name="nine" unicode="9" horiz-adv-x="495" 
d="M279 526q74 0 114 -55.5t40 -155.5q0 -125 -61 -233q-33 -57 -79 -101t-115 -71t-152 -27l57 73q78 0 136 24t91 66q64 83 64 213q0 104 -40 157t-104.5 53t-99.5 -44.5t-35 -104t34.5 -91.5t86.5 -32t108 32l7 -17q-29 -32 -72 -52.5t-80 -20.5q-68 0 -101.5 41
t-33.5 106q0 94 70 167t165 73z" />
    <glyph glyph-name="colon" unicode=":" horiz-adv-x="305" 
d="M60 65l72 69q31 -24 67 -81l-70 -64q-1 1 -26.5 31t-42.5 45zM98 440l72 69q31 -24 67 -81l-70 -64q-1 1 -26.5 31t-42.5 45z" />
    <glyph glyph-name="semicolon" unicode=";" horiz-adv-x="312" 
d="M91 440l72 69q31 -24 67 -81l-70 -64q-1 1 -26.5 31t-42.5 45zM60 66q52 65 60 67q21 -17 41 -44t26 -39q-2 -15 -29 -62t-72 -104l-12 12q53 71 53 87q-6 10 -33.5 38.5t-33.5 44.5z" />
    <glyph glyph-name="less" unicode="&#x3c;" horiz-adv-x="668" 
d="M532 481l39 -40q-184 -70 -369 -180v-18q189 -115 381 -202l-35 -30q-286 125 -447 240v10q213 140 431 220z" />
    <glyph glyph-name="equal" unicode="=" horiz-adv-x="632" 
d="M83 175h481l-54 -54h-481zM120 363h481l-54 -54h-481z" />
    <glyph glyph-name="greater" unicode="&#x3e;" horiz-adv-x="627" 
d="M106 481q218 -80 431 -220v-10q-161 -115 -447 -240l-35 30q192 87 381 202v18q-185 110 -369 180z" />
    <glyph glyph-name="question" unicode="?" horiz-adv-x="433" 
d="M159 742q72 72 135 72q124 0 124 -109q0 -54 -30.5 -104.5t-70.5 -89.5t-79 -76q-94 -88 -94 -144t17 -84q-55 -34 -69 -58l-4 1q-17 45 -17 99q0 48 31 89t71 74.5t80 69.5t68 83.5t28 97t-20 79t-54 29.5q-61 0 -113 -44zM70 49l72 69q31 -24 67 -81l-70 -64
q-1 1 -26.5 31t-42.5 45z" />
    <glyph glyph-name="at" unicode="@" horiz-adv-x="892" 
d="M408 448q-34 -29 -49.5 -93t-15.5 -126q41 1 80.5 38.5t65 89t32.5 100.5q-75 0 -113 -9zM530 698q138 0 209 -74.5t71 -183.5q0 -77 -33.5 -147.5t-99 -117.5t-148.5 -47q-26 0 -49 4q2 20 14.5 90.5t12.5 110.5q-103 -157 -211 -201q-12 25 -12 102v5q0 101 64 182
q33 42 77 59q43 14 157 14q20 0 20 -16q-10 -48 -40.5 -152t-43.5 -155q119 18 178.5 81t59.5 146q0 127 -69.5 196.5t-207.5 69.5q-103 0 -182 -55.5t-118 -139.5t-39 -178q0 -157 80 -245.5t248 -88.5q136 0 276 129l9 -12q-136 -149 -309 -149q-94 0 -167 27.5t-116 74.5
q-86 94 -86 222q0 80 31.5 159.5t88.5 144.5t144.5 105t190.5 40z" />
    <glyph glyph-name="A" unicode="A" horiz-adv-x="673" 
d="M456 696l-106 3q-97 0 -134 -21q-16 -9 -34.5 -27t-28.5 -44q-24 -62 -24 -155q-31 -21 -69 -54q0 193 127 297q74 60 205 60q3 0 165 -9q-29 -58 -29 -322q0 -228 9.5 -284.5t20 -70.5t35.5 -14t72 28l4 -8q-54 -48 -117 -86q-45 0 -62 34q-10 20 -16 38t-10 58
q-4 54 -6 156h-182q-7 -13 -22 -45q-32 -63 -49 -86q-111 -152 -238 -152h-62l47 64q36 -9 77.5 -9t65 19t57.5 76t145 268t159 286zM457 324q-1 37 -1 98t1 123.5t1 65.5q-30 -54 -81.5 -154t-69.5 -133h150z" />
    <glyph glyph-name="B" unicode="B" horiz-adv-x="671" 
d="M229.5 722.5q83.5 31.5 188.5 31.5t155 -35t50 -86t-36 -108.5t-89 -93.5q71 -12 105 -47.5t34 -94.5t-49 -128.5t-128 -115t-158 -45.5h-218l-4 8q87 18 115 169q18 94 35 203t26 159q20 123 49 162l1 1q-110 -2 -180 -77t-70 -221l-65 -56q0 174 103 287
q52 56 135.5 87.5zM446 439q41 0 70 42t29 95.5t-35.5 91t-108.5 37.5l-41 -2q-8 -16 -13 -43q-67 -406 -79 -470t-75 -125l4 -8h148q103 0 162.5 55.5t59.5 124t-45.5 113t-130.5 46.5h-22l29 37l11 13q17 -7 37 -7z" />
    <glyph glyph-name="C" unicode="C" horiz-adv-x="522" 
d="M412 751q69 0 136 -20l-58 -75q-55 39 -113 52q-68 -1 -132 -61t-102.5 -154t-38.5 -185.5t39.5 -163t113.5 -89.5q68 12 176 93l9 -8q-36 -45 -95 -90t-108 -58q-69 0 -117 36q-86 66 -86 198q0 115 52.5 237t141.5 205t182 83z" />
    <glyph glyph-name="D" unicode="D" horiz-adv-x="732" 
d="M266 733q68 21 146.5 21t133 -21t85.5 -57q61 -72 61 -182q0 -79 -32 -165.5t-86 -160t-135.5 -121t-170.5 -47.5h-180l-4 8q87 18 115 169q18 95 35 203.5t26 159.5q20 122 49 162q-82 0 -154 -70q-35 -34 -57 -93.5t-22 -134.5l-65 -56q0 141 61 240q64 105 194 145z
M339 57q81 0 148 59t102 145.5t35 159t-13.5 119.5t-42.5 85q-60 80 -202 80q-12 -25 -17 -55.5t-19 -123.5q-24 -152 -57 -340q-10 -58 -76 -121l4 -8h138z" />
    <glyph glyph-name="E" unicode="E" horiz-adv-x="625" 
d="M422 381l-134 2q-19 -123 -33 -190.5t-76 -127.5l4 -8l237 -2q8 -1 17 -1q72 0 129 40l4 -8q-81 -62 -117 -87l-383 1l-4 8q87 18 115 169q18 94 34 197.5t24 154.5q20 125 44 165h-41q-100 0 -140.5 -54.5t-40.5 -187.5l-69 -54q0 114 41 195t140 138q35 20 149 20h157
q119 0 152 1l-56 -59l-232 1q-7 -19 -10 -34l-34 -215h14l118 -4q52 0 97 10l5 -4q-18 -26 -47.5 -46t-63.5 -20z" />
    <glyph glyph-name="F" unicode="F" horiz-adv-x="606" 
d="M429 381l-134 2q-6 -37 -16.5 -94t-12.5 -70q-20 -115 -76.5 -171.5t-138.5 -56.5h-6l-54 1l47 64q36 -9 69 -9t49 16.5t26 65.5q21 111 42 253t34.5 212.5t31.5 99.5h-41q-100 0 -140.5 -54.5t-40.5 -187.5l-69 -54q0 114 41 195t140 138q35 20 149 20h157q119 0 152 1
l-56 -59l-232 1q-7 -19 -10 -34l-34 -215h18l114 -4q52 0 97 10l5 -4q-18 -26 -47.5 -46t-63.5 -20z" />
    <glyph glyph-name="G" unicode="G" horiz-adv-x="601" 
d="M67.5 427q32.5 87 89 162.5t129 123t141.5 47.5q101 0 167 -15l-51 -62q-69 28 -146.5 28t-148 -68.5t-108 -168.5t-37.5 -192.5t38.5 -151.5t115.5 -77q74 13 140 86q6 30 15 87q22 126 30 149q-112 0 -148 -17l-11 8l83 62q30 3 172 3l1 -4q-14 -8 -28.5 -31t-19.5 -56
q-42 -247 -65.5 -325.5t-90.5 -151.5l4 -8q47 -6 94 -6t86 5l4 -8q-46 -32 -67 -46l-230 -2l-4 8q63 40 102.5 105t68.5 196q-60 -90 -155 -117q-130 0 -178 116q-25 62 -25 148t32.5 173z" />
    <glyph glyph-name="H" unicode="H" horiz-adv-x="801" 
d="M320 750h94l1 -3q-10 -7 -24 -29.5t-27 -67t-34 -208.5l302 -1q21 132 30.5 179t26.5 74q-21 1 -59.5 1t-86.5 -7l-1 2q31 37 70 49t122 12h54l1 -3q-38 -24 -49 -88q-5 -31 -33.5 -203.5t-44.5 -270.5q-10 -58 -76 -121l4 -8h61q72 0 127 37l4 -8q-33 -27 -45 -37.5
t-23 -19.5t-17 -13t-13 -8q-13 -9 -19 -9q-122 0 -188 1l-4 8q87 18 115 169q12 64 37 214l-303 2q-17 -112 -28 -174q-21 -115 -77.5 -171.5t-137.5 -56.5h-6l-54 1l47 64q36 -9 68.5 -9t47.5 16t25 66q23 122 45 265t34.5 209t27.5 91l-75 1h-3q-95 0 -135.5 -55.5
t-40.5 -187.5l-69 -54q0 114 41 195t140 138q33 19 148 19z" />
    <glyph glyph-name="I" unicode="I" horiz-adv-x="441" 
d="M309 -1l-209 1l-4 8q87 18 115 169q24 132 46 271.5t32.5 182.5t22.5 63h-67q-100 0 -140.5 -54.5t-40.5 -187.5l-69 -54q0 114 41 195t140 138q35 20 145 20h90l1 -3q-38 -24 -49 -88q-7 -41 -21 -134q-24 -152 -57 -340q-14 -62 -76 -121l4 -8q24 -1 57.5 -1t73 5.5
t78.5 32.5l4 -8q-102 -86 -117 -87z" />
    <glyph glyph-name="J" unicode="J" horiz-adv-x="503" 
d="M396 751h90l1 -3q-15 -9 -29 -32t-19 -56q-45 -304 -111 -649q-13 -66 -73 -129.5t-142 -83.5q-59 0 -145 66q-21 15 -22 16l58 39q21 -20 34 -30.5t39.5 -23.5t51.5 -13q52 0 90.5 44t50.5 130q40 284 99 617q6 33 21 51h-69q-100 0 -140.5 -54.5t-40.5 -187.5l-69 -54
q0 114 41 195t140 138q35 20 144 20z" />
    <glyph glyph-name="K" unicode="K" horiz-adv-x="724" 
d="M323 750h94l1 -3q-10 -7 -24 -29.5t-25 -60t-26 -126.5t-28 -186.5t-18 -125.5q-21 -113 -76 -170t-138 -57h-61l47 64q36 -9 68.5 -9t47.5 16t25 66q23 122 45 265t34.5 209.5t27.5 91.5h-80q-95 0 -134.5 -56.5t-39.5 -186.5l-69 -54q0 114 41 195t140 138
q33 19 148 19zM743 716l-75 -50q-37 19 -76 19t-73.5 -29.5t-52.5 -73.5q-37 -87 -37 -163q60 -126 142.5 -264t153.5 -233l-35 -35q-166 180 -330 452q0 93 27.5 168.5t66 119.5t84.5 74q77 51 127.5 51t77.5 -36z" />
    <glyph glyph-name="L" unicode="L" horiz-adv-x="419" 
d="M527 -172q-43 -23 -86 -23t-88 21t-87 50.5t-84 59.5q-99 72 -167 72q-29 0 -61 -8l-4 8q87 18 115 169q27 140 41.5 248t18.5 135q12 74 85.5 133t154.5 59q55 0 100 -35l-59 -50q-61 46 -107 46q-75 0 -96 -124q-16 -91 -37 -232t-27 -171q-12 -60 -76 -121l4 -8
q74 0 172 -72q41 -30 81 -61q97 -72 165 -72q52 0 96 45l9 -8q-20 -38 -63 -61z" />
    <glyph glyph-name="M" unicode="M" horiz-adv-x="992" 
d="M432 697l-105 3q-97 0 -134 -21q-16 -9 -34.5 -27t-28.5 -44q-24 -62 -24 -155q-31 -21 -69 -54q0 193 127 297q74 60 205 60q31 0 164 -10q18 -190 18 -452v-112q36 122 95.5 249.5t128 222t119.5 105.5q-37 -330 -37 -512q0 -103 12 -181q40 0 87 28l4 -8
q-72 -63 -156 -102q-19 94 -19 238q0 218 36 389q-74 -62 -152 -227q-45 -96 -101 -222.5t-80 -180.5l-4 1l1 52q0 102 -10 330t-10 264v12l-179 -467q-30 -78 -97 -129t-157 -51h-61l47 64q36 -9 70.5 -9t58 8t39 27t23 33.5t18.5 44.5l191 513q6 16 14 23z" />
    <glyph glyph-name="N" unicode="N" horiz-adv-x="809" 
d="M300 750h88q120 -327 193 -637q10 59 32 209.5t40 242t38 129.5q-21 1 -59.5 1t-86.5 -7l-1 2q31 37 70 49t122 12h54l1 -3q-38 -24 -49 -88l-76 -442q-17 -99 -45.5 -150.5t-86.5 -77.5l-4 8l27 15q-41 125 -108 316t-111 326q-16 -77 -33 -218.5t-29 -208.5
q-21 -115 -77.5 -171.5t-137.5 -56.5h-6l-54 1l47 64q36 -9 68.5 -9t47.5 16t25 66q24 125 44.5 265t32 204.5t25.5 86.5l-72 1h-3q-95 0 -135.5 -55.5t-40.5 -187.5l-69 -54q0 114 41 195t140 138q33 19 148 19z" />
    <glyph glyph-name="O" unicode="O" horiz-adv-x="582" 
d="M507 660q37 -71 37 -172.5t-45 -206t-125.5 -183t-175.5 -103.5q-81 21 -122 86t-41 156q0 166 105.5 321.5t253.5 194.5q76 -22 113 -93zM476 429q0 94 -33 166t-101 102q-102 -31 -170.5 -150.5t-68.5 -249.5q0 -87 36.5 -153t110.5 -93q97 29 161.5 141.5t64.5 236.5z
" />
    <glyph glyph-name="P" unicode="P" horiz-adv-x="653" 
d="M229.5 722.5q83.5 31.5 192.5 31.5t167.5 -39t58.5 -104q0 -49 -30 -107.5t-89 -103.5t-128 -45q-15 0 -22 1l40 50q17 -7 37 -7q57 0 87 45.5t30 109t-48.5 107.5t-136.5 44h-19q-11 -23 -16.5 -54.5t-20.5 -124.5q-23 -152 -56 -340q-10 -58 -76 -121l4 -8h61
q72 0 127 37l4 -8q-33 -27 -45 -37.5t-23 -19.5t-17 -13t-13 -8q-13 -9 -19 -9q-122 0 -188 1l-4 8q87 18 115 169q27 148 48 280t33.5 177.5t29.5 67.5q-112 0 -184.5 -74.5t-72.5 -223.5l-65 -56q0 174 103 287q52 56 135.5 87.5z" />
    <glyph glyph-name="Q" unicode="Q" horiz-adv-x="649" 
d="M69 386q0 151 106 259t270 108q75 -22 111.5 -90.5t36.5 -157.5q0 -131 -102.5 -261t-239.5 -197q20 -8 77 -37q111 -57 180 -57q45 0 115 34l10 -11q-105 -80 -192 -80q-65 0 -165 66q-36 25 -92 46t-99.5 21t-75.5 -8l-4 8l81 50q38 -15 75 -15q65 0 132.5 38.5t118 96
t82.5 126.5t32 137.5t-33 137t-100 97.5q-256 0 -256 -269q0 -111 94 -150l-61 -55q-46 16 -73.5 59t-27.5 104z" />
    <glyph glyph-name="R" unicode="R" horiz-adv-x="721" 
d="M232.5 722.5q83.5 31.5 192.5 31.5t167.5 -39t58.5 -108.5t-57.5 -131t-155.5 -84.5q155 -302 290 -470l-30 -34q-198 215 -355 496l33 35h39q76 0 118.5 40.5t42.5 99.5t-48.5 103t-136.5 44h-19q-11 -23 -16.5 -54.5t-19.5 -124.5q-24 -152 -57 -340q-10 -58 -76 -121
l4 -8h61q72 0 127 37l4 -8q-33 -27 -45 -37.5t-23 -19.5t-17 -13t-13 -8q-13 -9 -19 -9q-122 0 -188 1l-4 8q87 18 115 169q27 148 48 280t33.5 177.5t29.5 67.5q-112 0 -184.5 -74.5t-72.5 -223.5l-65 -56q0 174 104 287q51 56 134.5 87.5z" />
    <glyph glyph-name="S" unicode="S" horiz-adv-x="493" 
d="M178 707q68 53 151.5 53t153.5 -26l-57 -66q-66 30 -134 30q-127 0 -127 -57q0 -37 32.5 -88.5t71.5 -96t71.5 -98t32.5 -92.5q0 -111 -72 -192.5t-169.5 -81.5t-156.5 46l57 64q84 -53 151 -53q48 0 88.5 43t40.5 88.5t-31.5 101t-69.5 100t-69.5 98.5t-31.5 96
q0 78 68 131z" />
    <glyph glyph-name="T" unicode="T" horiz-adv-x="574" 
d="M627 693l-212 1q-7 -19 -10 -34q-66 -408 -78 -474q-14 -62 -76 -121l4 -8l54 -3q91 0 146 40l4 -8q-81 -62 -117 -87l-200 1l-4 8q87 18 115 169q18 94 34 197.5t24 154.5q20 125 44 165h-111q-100 0 -140.5 -54.5t-40.5 -187.5l-69 -54q0 114 41 195t140 138
q27 16 79.5 18t139.5 2h157q103 0 132 1z" />
    <glyph glyph-name="U" unicode="U" horiz-adv-x="803" 
d="M320 750h94l1 -3q-10 -7 -24 -29.5t-22 -51.5q-72 -392 -72 -479q0 -122 80 -122q34 0 71.5 35.5t66.5 85.5q62 109 78 185l64 323q7 18 27 31t34.5 17t39.5 9l1 -3q-38 -24 -49 -88q-6 -35 -23 -132q-57 -327 -57 -372.5t20.5 -67.5t55 -22t81.5 28l4 -8
q-54 -48 -117 -86q-103 1 -103 141q0 43 12 115h-5q-35 -96 -116 -176.5t-143 -80.5q-95 0 -95 160q0 53 9 109.5t19 129.5l16 112q15 102 25.5 135t20.5 50h-80q-95 0 -134.5 -56.5t-39.5 -186.5l-69 -54q0 114 41 195t140 138q33 19 148 19z" />
    <glyph glyph-name="V" unicode="V" horiz-adv-x="690" 
d="M278 757q52 0 81 -49q32 -55 41.5 -117t14 -105.5t7.5 -107.5q3 -88 3 -244q9 31 29 70.5t82 155.5q142 267 142 301q0 23 -36 23h-57l-1 4l73 45h39q57 0 57 -40q0 -26 -48 -118t-75 -141.5t-56.5 -102.5t-72.5 -130.5t-87 -172.5l-67 -37q11 83 11 193.5t-6.5 191.5
t-20.5 157t-41.5 121.5t-64.5 45.5q-55 0 -108 -47q-28 -25 -45.5 -77t-17.5 -123q-31 -21 -69 -54q0 144 87 251t206 107z" />
    <glyph glyph-name="W" unicode="W" horiz-adv-x="978" 
d="M278 757q143 0 143 -396q0 -102 -9 -208q56 99 131 283t101 245l117 72l6 -7q-73 -86 -73 -254q0 -94 26 -356q51 68 127.5 243.5t76.5 257.5q0 47 -32 47h-47l-1 4l76 45h39q57 0 57 -28v-4q-17 -86 -61.5 -198.5t-82.5 -186.5q-56 -112 -152 -291l-36 -35
q-30 154 -41.5 251t-11.5 241v55q-80 -195 -118 -275t-120 -234l-69 -37l7 57q15 118 15 270q0 382 -121 382q-55 0 -108 -47q-28 -25 -45.5 -77t-17.5 -123q-31 -21 -69 -54q0 144 87 251t206 107z" />
    <glyph glyph-name="X" unicode="X" horiz-adv-x="748" 
d="M669.5 743q29.5 14 72 14t79.5 -20l-49 -61q-54 38 -83 38q-39 0 -74 -59q-26 -44 -137 -248l6 -28q21 -105 66 -215t80 -110q52 0 137 70l9 -8q-33 -39 -80.5 -75t-95.5 -49q-90 0 -177 317q-65 -96 -122 -161q-90 -104 -186 -135q-39 -13 -74 -13h-61l47 65
q36 -9 80 -9t76 23.5t72.5 80t149.5 227.5l-6 26q-43 195 -78 255q-20 34 -44 50q-72 0 -106.5 -50.5t-34.5 -159.5l-69 -54q0 127 64 215t190 88q40 0 65 -43q29 -51 41 -94q16 -62 29 -122l5 -23q3 4 10.5 19t25 45t32 54.5t42 63t48.5 55.5t50.5 31z" />
    <glyph glyph-name="Y" unicode="Y" horiz-adv-x="674" 
d="M230 757q33 0 61.5 -35.5t55.5 -123.5t38 -134q31 -126 51 -228q136 237 177.5 318.5t41.5 99t-18.5 24t-73.5 6.5l-1 4l75 45h39q55 0 55 -40q0 -45 -152 -313q-65 -114 -67 -118q-121 -227 -190 -313t-170 -132q-75 10 -167 82l58 42q65 -60 127 -60q48 0 94.5 59.5
t127.5 213.5q-7 25 -30 117t-36.5 142.5t-34.5 122.5q-41 140 -75 182q-67 0 -99 -50.5t-32 -159.5l-69 -54q0 118 63 210.5t151 92.5z" />
    <glyph glyph-name="Z" unicode="Z" horiz-adv-x="537" 
d="M170 735q46 24 102 24t123 -20.5t104 -20.5q63 0 145 37l7 -7q-97 -88 -279 -344q-65 -92 -141.5 -181t-132.5 -125l4 -8q54 0 113 -27.5t102 -60t101 -60t109.5 -27.5t85.5 54l12 -3q-13 -47 -60.5 -77.5t-97.5 -30.5t-108.5 30t-106.5 66.5t-107.5 66.5t-96.5 30
t-69 -8l-4 8q133 141 207 221.5t166.5 192t153.5 201.5q-26 -3 -46 -3q-55 0 -125 25.5t-105 25.5t-56 -6q-50 -46 -50 -169l-69 -54q0 106 48 185q25 41 71 65z" />
    <glyph glyph-name="bracketleft" unicode="[" horiz-adv-x="420" 
d="M235 820h207l-18 -23h-128q-82 -549 -120 -861h147l-19 -24h-191q43 372 122 908z" />
    <glyph glyph-name="backslash" unicode="\" horiz-adv-x="489" 
d="M114 838q137 -496 277 -867l-41 -54q-121 331 -285 871z" />
    <glyph glyph-name="bracketright" unicode="]" horiz-adv-x="414" 
d="M135 820h192q-50 -395 -126 -908h-207l19 24h133q60 422 115 861h-144z" />
    <glyph glyph-name="asciicircum" unicode="^" horiz-adv-x="672" 
d="M347 697q181 -250 244 -361l-45 -44q-16 23 -226 322q-85 -120 -254 -310l-12 14q136 188 293 379z" />
    <glyph glyph-name="underscore" unicode="_" horiz-adv-x="636" 
d="M115 -1h489l-54 -54h-489z" />
    <glyph glyph-name="grave" unicode="`" 
d="M93 758q77 0 137 -70q26 -31 71 -94l-15 -18q-75 87 -123 116q-17 10 -39 18.5t-24 8.5l-15 39h8z" />
    <glyph glyph-name="a" unicode="a" 
d="M254 500q72 0 97 -5l-6 -29q-9 -46 -25 -138q-25 -168 -60 -274l3 -2q87 63 210 234l10 -7q-72 -105 -145 -186.5t-122 -102.5q-1 12 -1 47.5t5 73t16.5 90.5t17.5 87l-3 2q-62 -105 -114 -174.5t-121 -130.5q-13 45 -13 131t26.5 182t78.5 149t146 53zM113 418
q-24 -31 -36 -129t-12 -151t6 -71q10 0 32 33.5t23 34.5q38 47 95.5 155.5t57.5 152.5q-21 6 -62 6q-80 0 -104 -31z" />
    <glyph glyph-name="b" unicode="b" horiz-adv-x="384" 
d="M117 42q75 0 122.5 85t47.5 204q0 51 -15 89q-69 -70 -131.5 -167t-72.5 -196q0 -15 49 -15zM323 851q29 0 49 -5l-41 -54q-28 6 -57 6t-47.5 -10t-31 -29.5t-21.5 -39t-15 -50t-9 -49.5q-6 -30 -12 -90q-5 -32 -18.5 -157.5t-16.5 -143.5q135 248 221 288q9 -7 16 -33
t7 -68t-10 -101t-33.5 -118.5t-59 -104.5t-91.5 -73t-125 -28q-11 20 -11 60q5 44 73 555q12 91 82 168t151 77z" />
    <glyph glyph-name="c" unicode="c" horiz-adv-x="311" 
d="M236 514q49 0 78 -27l-44 -52q-23 39 -60 39q-55 0 -95.5 -86t-40.5 -197.5t66 -147.5q103 74 237 268l10 -6q-75 -112 -153.5 -202.5t-131.5 -112.5q-27 0 -57 32q-17 19 -28 61t-11 107.5t27 130.5t65.5 105.5t76 64t61.5 23.5z" />
    <glyph glyph-name="d" unicode="d" horiz-adv-x="420" 
d="M537 851q29 0 49 -5l-41 -54q-28 6 -59 6t-52 -15t-33 -35t-21.5 -54t-13 -56.5t-8 -60t-9 -63.5t-18 -138.5t-27.5 -191.5t-35 -130l3 -2q84 61 210 234l10 -7q-72 -105 -145 -186.5t-122 -102.5q-2 24 -2 54.5t14.5 110.5t17 102t7.5 31l-3 2q-4 -6 -42 -68t-59 -93
t-60.5 -74.5t-74.5 -62.5q-20 43 -20 115.5t24 170.5q34 112 86 167.5t138 55.5q21 0 34 -5l19 110q16 92 84.5 168.5t148.5 76.5zM214 450q-68 0 -94.5 -35.5t-38 -139.5t-11.5 -143.5t10 -69.5q134 142 198 378q-22 10 -64 10z" />
    <glyph glyph-name="e" unicode="e" horiz-adv-x="298" 
d="M209 474q-50 0 -83 -62t-48 -158q62 40 110 97t48 90t-27 33zM137.5 465.5q55.5 48.5 106 48.5t50.5 -40q0 -97 -221 -244q-1 -11 -1 -28q0 -113 68 -163q99 76 222 247l10 -7q-72 -105 -145 -186.5t-122 -102.5q-50 12 -75 66.5t-25 128.5t38.5 153t94 127.5z" />
    <glyph glyph-name="f" unicode="f" horiz-adv-x="224" 
d="M337 851q42 0 69 -15l-41 -54q-36 16 -73 16t-58 -15t-33 -35t-21.5 -54t-13 -56.5t-8 -60t-7.5 -52t-4 -27.5l132 7q-11 -29 -12 -29q-31 -15 -126 -22q-29 -244 -49 -383.5t-81.5 -212.5t-156.5 -73q-22 0 -44 6l38 55q30 -8 61 -8q95 0 115 154q3 24 62 458l-92 -4
q27 46 28 46q31 1 71 3q6 50 10 75q17 126 83 203.5t151 77.5z" />
    <glyph glyph-name="g" unicode="g" horiz-adv-x="417" 
d="M232 450q-68 0 -94.5 -35.5t-38 -139.5t-11.5 -143.5t10 -69.5q134 142 198 378q-22 10 -64 10zM269 501h91q-7 -51 -24 -192t-30 -234q-19 -139 -82.5 -214.5t-172.5 -75.5q-41 0 -77 9l39 61q43 -13 81 -13q71 0 101 28.5t44 137.5q34 268 41 280l-3 2q-3 -5 -23 -39
t-29 -48.5t-29.5 -46.5t-35.5 -51t-36 -43q-40 -48 -83 -70q-20 43 -20 114.5t24 171.5q54 223 224 223z" />
    <glyph glyph-name="h" unicode="h" horiz-adv-x="445" 
d="M331 851q29 0 49 -5l-41 -54q-28 6 -57 6t-47.5 -9.5t-31.5 -30t-21.5 -39t-15 -50t-9.5 -49t-6.5 -50.5t-4.5 -40l-45 -342q157 282 250 326q17 -13 17 -84t-34 -211t-38 -165l2 -2q87 63 210 234l10 -7q-72 -105 -145 -186.5t-122 -102.5q-2 24 -2 38q0 63 23 193.5
t23 201.5q-63 -56 -133.5 -173.5t-115.5 -259.5q-23 26 -23 64q0 7 2 19l73 533q12 86 82.5 165.5t150.5 79.5z" />
    <glyph glyph-name="i" unicode="i" horiz-adv-x="221" 
d="M29 -10q-2 24 -2 57t8 90.5t26 155t28 160.5l-70 -51l2 11q7 10 19.5 25.5t47.5 43.5t66 33q-6 -39 -21 -151q-30 -228 -59 -309l2 -3q86 61 210 234l11 -7q-72 -105 -145 -186.5t-123 -102.5zM176 735q1 -8 1 -37q0 -66 -66 -100q10 27 12 89z" />
    <glyph glyph-name="j" unicode="j" horiz-adv-x="199" 
d="M-154 -216q-29 0 -49 5l41 64q28 -6 56 -6t45 6.5t29 15.5t22 28t15.5 33.5t11 43.5t8 47t7.5 55t8 57l47 320l-70 -51l2 11q7 10 19.5 25.5t47.5 43.5t66 33l-47 -349q-25 -186 -95.5 -284t-163.5 -98zM180 732q1 -8 1 -37q0 -66 -66 -100q10 27 12 89z" />
    <glyph glyph-name="k" unicode="k" horiz-adv-x="455" 
d="M146 562l-28 -225q38 77 95 127t117 50q48 0 48 -50q0 -109 -148 -185q14 -34 38 -115.5t30 -111.5q38 21 106.5 92.5t118.5 141.5l10 -7q-72 -105 -145 -186.5t-122 -102.5q-24 41 -66.5 144t-54.5 129q78 32 127.5 77.5t49.5 96.5q0 37 -30 37q-35 0 -63 -26t-57.5 -77
t-46.5 -100t-26 -87t-22.5 -100.5t-21.5 -92.5q-35 23 -35 67q0 10 1 15l73 533q12 86 82.5 165.5t150.5 79.5q29 0 49 -5l-41 -54q-28 6 -59.5 6t-53 -16.5t-34 -38.5t-21.5 -58q-21 -84 -21 -123z" />
    <glyph glyph-name="l" unicode="l" horiz-adv-x="226" 
d="M331 851q29 0 49 -5l-41 -54q-28 6 -59 6t-52 -15t-33 -35t-21.5 -54t-13 -56.5t-8 -60t-9 -64t-17.5 -137.5q-28 -239 -62 -322l3 -2q96 69 228 259l10 -6q-75 -112 -153.5 -202.5t-131.5 -112.5q-2 24 -2 56t13.5 131t36 237t30.5 192q12 85 82 165t151 80z" />
    <glyph glyph-name="m" unicode="m" horiz-adv-x="651" 
d="M347 514q18 -14 18 -63.5t-22 -142t-25 -116.5l3 -2q52 110 117 203.5t118 120.5q17 -14 17 -78.5t-33.5 -207t-38.5 -174.5l3 -2q89 64 210 234l10 -7q-69 -102 -142.5 -185t-124.5 -104q-2 24 -2 38q0 64 22.5 193t22.5 197l-4 2q-58 -57 -125 -174t-107 -256
q-22 20 -22 50q0 18 24.5 159t24.5 219l-4 2q-58 -57 -125 -174t-107 -256q-23 26 -23 59t8 95t16.5 113.5t19.5 119t12 71.5l-3 2l-66 -48l2 11q7 10 19.5 25.5t47.5 43.5t66 33q-7 -42 -21 -155.5t-24 -167.5l3 -2q52 110 117 203.5t118 120.5z" />
    <glyph glyph-name="n" unicode="n" horiz-adv-x="456" 
d="M361 514q17 -14 17 -79t-35 -218.5t-37 -162.5l3 -2q89 64 210 234l10 -7q-69 -102 -142.5 -185t-124.5 -104q-2 24 -2 38q0 64 22.5 193t22.5 197l-4 2q-60 -54 -130 -171.5t-115 -258.5q-23 26 -23 64q0 32 42 304l14 90l-3 2l-66 -48l2 11q7 10 19.5 25.5t47.5 43.5
t66 33q-7 -42 -21 -155.5t-24 -167.5l3 -2q59 115 125.5 206.5t122.5 117.5z" />
    <glyph glyph-name="o" unicode="o" horiz-adv-x="367" 
d="M325 325q0 -103 -72 -205t-166 -129q-38 17 -60 74t-22 113q0 108 71.5 207.5t166.5 126.5q36 -17 59 -76t23 -111zM71 227q0 -39 2 -63q5 -68 41 -133q145 62 145 245q0 39 -2 64q-5 67 -41 132q-77 -35 -111 -95.5t-34 -149.5z" />
    <glyph glyph-name="p" unicode="p" horiz-adv-x="386" 
d="M102 -144l-213 -116l-9 11q72 39 91 74t33 119t36.5 250t39.5 258l-73 -47l2 11q7 10 19.5 25.5t47.5 43.5t66 33q-12 -57 -22 -126t-15 -98l3 -1q85 156 197 225q18 -29 24.5 -63t6.5 -99.5t-26 -148.5t-72.5 -145t-96.5 -62q-34 0 -64 29q-12 -42 -23 -91.5t-18 -71
t-20 -38.5l3 -5q2 1 77 48zM143 54q69 0 95 59t26 219q0 74 -9 97q-32 -13 -85.5 -81t-70 -141.5t-19.5 -136.5q8 -6 30 -11t33 -5z" />
    <glyph glyph-name="q" unicode="q" horiz-adv-x="388" 
d="M214 450q-68 0 -94.5 -35.5t-38 -139.5t-11.5 -143.5t10 -69.5q134 142 198 378q-22 10 -64 10zM251 501l60 -7q31 0 55 24l6 -13q-28 -23 -32 -55q-5 -39 -23 -160.5t-25 -160.5q-19 -98 -23.5 -130t-9 -60.5t-7.5 -38.5q-10 -37 -39 -71l5 -5q15 8 79 48l8 -17
l-212 -123l-11 21q55 23 86 55q21 22 28 69q2 13 5.5 45t11.5 87.5t23 140.5t18 107t8 31l-3 2q-3 -5 -23 -39t-29 -48.5t-29.5 -46.5t-35.5 -51t-36 -43q-40 -48 -83 -70q-20 43 -20 114.5t24 171.5q54 223 224 223z" />
    <glyph glyph-name="r" unicode="r" horiz-adv-x="295" 
d="M328 515q21 0 35 -10l-32 -55q-14 9 -36 9q-48 0 -105 -109.5t-108 -312.5l-55 -47q-2 24 -2 57t8 90.5t26 155t28 160.5l-70 -51l2 11q7 10 19.5 25.5t47.5 43.5t66 33q-7 -43 -19.5 -137.5t-19.5 -139.5h7q51 136 100.5 206.5t107.5 70.5z" />
    <glyph glyph-name="s" unicode="s" horiz-adv-x="303" 
d="M112 479q44 35 97 35t82 -27l-47 -55q-12 42 -70 42q-32 0 -52 -18.5t-20 -43.5q0 -24 6 -36.5t9 -18.5t10.5 -16.5t11 -14t13.5 -15t30 -35.5q56 -63 56 -119t-66.5 -110.5t-124 -54.5t-81.5 27l50 46q35 -31 84 -31q30 0 59.5 25.5t29.5 54.5q0 51 -77 135
q-23 25 -35 39t-25.5 39t-13.5 44q0 50 74 108z" />
    <glyph glyph-name="t" unicode="t" horiz-adv-x="227" 
d="M144 509q50 2 81 2t66 -4l-53 -48q-40 2 -66 2h-36l-5 -39q-35 -288 -68 -368l3 -2q96 69 228 259l10 -6q-75 -112 -153.5 -202.5t-131.5 -112.5q-2 24 -2 40.5t2 37.5t7.5 59t11 73.5t18 112.5t23.5 147q-29 0 -79 -4l27 42q27 5 58 8l7 47l63 36z" />
    <glyph glyph-name="u" unicode="u" horiz-adv-x="459" 
d="M251 28q0 84 43 285l-3 2q-57 -115 -120.5 -206.5t-117.5 -117.5q-11 37 -11 92t15 162l27 204l-65 -47l2 11q7 10 19.5 25.5t47.5 43.5t66 33q-54 -276 -54 -408q0 -16 5 -41q49 48 107 140.5t102 207.5q32 86 69 100l-71 -406q-5 -27 -15 -54l3 -2q96 69 228 259l10 -6
q-75 -112 -153.5 -202.5t-131.5 -112.5q-2 24 -2 38z" />
    <glyph glyph-name="v" unicode="v" horiz-adv-x="341" 
d="M276 377l-12 116q0 9 7.5 17t17.5 9q27 -7 38 -31q-31 -170 -94.5 -304.5t-137.5 -189.5q-24 83 -27 194q-1 37 -1 120.5t-3 153.5l-85 -61l2 11q7 10 19.5 25.5t47.5 43.5t66 33q19 -17 19 -55l-2 -262q0 -89 2 -135q37 37 80 133t63 182z" />
    <glyph glyph-name="w" unicode="w" horiz-adv-x="550" 
d="M133 459l-2 -262q0 -89 2 -135q36 36 79 132t68 187q0 6 -10 82l52 55q23 -2 23 -74v-53l-2 -194q0 -89 2 -135q37 37 80 133t63 182l-12 116q0 9 7.5 17t17.5 9q27 -7 38 -31q-31 -170 -94.5 -304.5t-137.5 -189.5q-18 59 -21 115.5t-4.5 110t-2.5 77.5l-1 20
q-31 -111 -80 -196.5t-103 -126.5q-30 106 -30 333q0 117 -1 135l-85 -61l2 11q7 10 19.5 25.5t47.5 43.5t66 33q19 -17 19 -55z" />
    <glyph glyph-name="x" unicode="x" horiz-adv-x="364" 
d="M392 502h1l-25 -39q-20 2 -34.5 2t-22 -4t-17 -17.5t-27.5 -47.5q-61 -113 -71 -133q48 -156 70 -222q31 14 88 59l5 -3q-25 -38 -64.5 -71t-70.5 -37q-39 93 -70 206q-66 -106 -102 -153q-10 -13 -35.5 -30t-48 -17t-37.5 4l1 1v-1l16 20t15 19q38 0 60 13t39 39
q49 75 82 131q-35 98 -81 240q-25 -12 -82 -56l-5 3q25 38 64.5 71t70.5 37q42 -100 75 -221q12 22 33 64t32 60t31 41q37 42 110 42z" />
    <glyph glyph-name="y" unicode="y" horiz-adv-x="422" 
d="M101 99v-23l4 -10q49 47 106.5 140t101.5 208q1 2 8 19t9 21.5t9 17.5t13 19q16 18 31 23q-2 -15 -6.5 -35.5t-10 -49.5t-14 -84.5t-19 -141.5t-16.5 -128q-19 -139 -82.5 -214.5t-172.5 -75.5q-41 0 -77 9l39 61q43 -13 81 -13q71 0 101 28.5t42 121.5q19 156 46 321
l-3 2q-57 -115 -120.5 -206.5t-117.5 -117.5q-10 34 -10 86t3 81.5t13 102.5l25 188l-65 -47l2 11q7 10 19.5 25.5t47.5 43.5t66 33q-53 -275 -53 -416z" />
    <glyph glyph-name="z" unicode="z" horiz-adv-x="336" 
d="M139 506q12 0 53 -4.5t66 -4.5q61 0 72 17l6 -3q-130 -176 -307 -438q-6 -10 -18 -22l3 -3q18 8 59 8t92 -8t77.5 -8t65.5 25l5 -6q-48 -37 -58 -50t-17 -16t-27.5 -3t-81.5 9t-98.5 9t-78.5 -17l-10 9q153 213 300 430q3 4 3 8q0 6 -29.5 10t-48.5 4q-79 0 -159 -51
l-6 10q24 34 62.5 64.5t74.5 30.5z" />
    <glyph glyph-name="braceleft" unicode="{" horiz-adv-x="373" 
d="M234 -116q-112 17 -112 112q0 47 26 142t26 136v10q-7 63 -66 67l-13 1l16 27q40 0 63 43q15 29 19.5 68t7 84.5t10 88.5t23.5 78t53 56.5t93 21.5l7 -13q-52 -7 -79.5 -49t-35 -100t-14.5 -117t-32 -108q-33 -66 -104 -66l-2 -3q21 0 33 -4q73 -26 73 -104
q0 -46 -22.5 -143t-22.5 -141q0 -70 63 -73z" />
    <glyph glyph-name="bar" unicode="|" horiz-adv-x="257" 
d="M173 896l-12 -1065l-44 -44l-2 1067z" />
    <glyph glyph-name="braceright" unicode="}" horiz-adv-x="362" 
d="M213 707q0 90 -67 99l8 13q110 0 120 -97v-17t-15 -103t-15 -117.5t1 -39.5q5 -52 36 -63q9 -5 33 -6l-11 -24q-43 -1 -67 -26t-30.5 -64t-8 -86.5t-5 -96.5t-16 -90.5t-47.5 -70.5t-92 -35l4 15q67 4 81 94q7 41 9.5 90t8 97.5t18.5 89t45.5 66.5t84.5 28l3 3h-7
q-91 0 -91 114q0 42 10 115t10 112z" />
    <glyph glyph-name="asciitilde" unicode="~" horiz-adv-x="750" 
d="M274 346q31 0 125.5 -30.5t163.5 -30.5q42 0 100 28l13 -12q-54 -67 -138 -67q-62 0 -148 29t-126 29q-100 0 -175 -55l-9 18q115 91 194 91z" />
    <glyph glyph-name="nbspace" unicode="&#xa0;" horiz-adv-x="200" 
 />
    <glyph glyph-name="exclamdown" unicode="&#xa1;" horiz-adv-x="347" 
d="M203 381l25 -10q-93 -379 -111 -637l-82 -53q24 178 37.5 259.5t46.5 203t84 237.5zM168 511l72 69q31 -24 67 -81l-70 -64q-1 1 -26.5 31t-42.5 45z" />
    <glyph glyph-name="cent" unicode="&#xa2;" horiz-adv-x="343" 
d="M241 510q17 4 37 4q37 0 71 -15q-4 -6 -20 -25t-23 -31q-36 19 -72 21l-60 -387q64 11 126 37l6 -13q-62 -35 -137 -53l-21 -134l-38 18l18 113q-56 6 -84.5 48t-28.5 105q0 89 51 177t133 122l22 142l39 -12zM101.5 393.5q-29.5 -53.5 -29.5 -116.5t17.5 -113t45.5 -72
l58 368q-62 -13 -91.5 -66.5z" />
    <glyph glyph-name="sterling" unicode="&#xa3;" horiz-adv-x="528" 
d="M254 675.5q66 60.5 133 60.5t114 -46l-54 -38q-64 48 -110 48q-75 0 -93 -126l-23 -162h170l-41 -32q-59 -16 -136 -19l-14 -96q-12 -84 -35.5 -124t-80.5 -87q135 -33 245 -33q64 0 92 20.5t28 58.5t-17 61l65 32q19 -19 19 -54q0 -57 -82 -116.5t-155 -59.5
q-45 0 -126.5 18t-123.5 18t-73 -31q-6 2 -6 8q0 25 65 67q44 28 77.5 71t40.5 94l20 152h-4q-20 0 -60.5 0.5t-59.5 0.5l40 49h91l19 137q9 68 75 128.5z" />
    <glyph glyph-name="currency" unicode="&#xa4;" horiz-adv-x="824" 
d="M674 495l-75 -74q45 -59 45 -129q0 -46 -30 -107q-11 -21 -15 -23q42 -39 75 -73q-26 -26 -39 -40l-75 75q-54 -46 -130.5 -46t-130.5 46l-75 -75q-13 14 -39 40q50 50 75 73q-45 62 -45 134t45 125l-75 74q18 15 39 40l75 -75q60 45 133.5 45t127.5 -45q18 19 42.5 43
t32.5 32zM541.5 181q46.5 47 46.5 113t-48 110.5t-112.5 44.5t-110.5 -46.5t-46 -110.5t46.5 -111t112 -47t112 47z" />
    <glyph glyph-name="yen" unicode="&#xa5;" horiz-adv-x="587" 
d="M220 757q39 0 70.5 -87t36.5 -199h8q50 124 123.5 194.5t164.5 70.5q32 0 59 -13l-53 -42q-38 19 -63 19q-43 0 -88 -51.5t-74 -116t-41 -121.5h151l-31 -36q-68 -10 -127 -13l-17 -85h160l-21 -31q-86 -21 -147 -21q-11 -58 -29 -90.5t-58 -69.5l3 -8h61q73 0 129 37
l4 -8q-12 -9 -27 -21.5t-24 -19.5t-20 -15.5t-17.5 -13.5t-12.5 -9q-14 -8 -20 -8q-122 0 -188 1l-4 8q56 12 83.5 65.5t47.5 153.5q-23 0 -66 0.5t-57 0.5l42 50h88l16 82q-30 0 -72 0.5t-60 0.5l42 49h93q-1 133 -37 221t-75 88q-55 0 -84 -51t-33 -160l-71 -54
q7 177 106 258q54 45 129 45z" />
    <glyph glyph-name="brokenbar" unicode="&#xa6;" horiz-adv-x="248" 
d="M92 236h46l-4 -355l-42 -44v399zM148 856l-8 -384h-47l-3 342z" />
    <glyph glyph-name="section" unicode="&#xa7;" horiz-adv-x="540" 
d="M267.5 686.5q80.5 66.5 158 66.5t102.5 -39l-68 -40q-35 28 -86 28t-81 -30t-30 -68t18 -69.5t44.5 -58.5t52.5 -56q62 -67 62 -141q0 -41 -32.5 -98.5t-71.5 -75.5q2 -16 2 -25q0 -71 -80.5 -142t-155.5 -71q-31 0 -62.5 9.5t-45.5 29.5q63 37 72 41q41 -30 89.5 -30
t76.5 31.5t28 72.5t-28 82.5t-61 72.5t-61 75.5t-28 88t32 101.5t76 78q-3 13 -3 28q0 73 80.5 139.5zM198 493q-37 -58 -37 -107t19 -86.5t42.5 -61t55 -55.5t47.5 -56q37 62 37 105t-11.5 72.5t-31 52.5t-40.5 43q-60 57 -81 93z" />
    <glyph glyph-name="dieresis" unicode="&#xa8;" horiz-adv-x="498" 
d="M138 728l54 50q33 -26 48 -52l-51 -55q-37 45 -51 57zM327 728l54 50q28 -18 47 -52l-45 -55q-30 38 -56 57z" />
    <glyph glyph-name="copyright" unicode="&#xa9;" horiz-adv-x="845" 
d="M479 666q129 0 207.5 -87t78.5 -201q0 -169 -98 -273t-266 -104q-120 0 -200.5 89t-80.5 198q0 167 93 272.5t266 105.5zM618 561q-70 59 -175.5 59t-180 -59t-89.5 -143q-7 -38 -7 -80q0 -148 98 -232q69 -59 164 -59q116 0 191.5 59t90.5 144q7 37 7 79q0 149 -99 232z
M467 527q36 0 70 -11t44 -25v-63h-16q-3 26 -27 48.5t-79.5 22.5t-91.5 -44.5t-36 -114t36.5 -120t103.5 -50.5t109 67h15l-14 -64q-10 -11 -49 -21t-70 -10q-88 0 -144.5 49.5t-56.5 150.5q0 68 54.5 126.5t151.5 58.5z" />
    <glyph glyph-name="ordfeminine" unicode="&#xaa;" horiz-adv-x="303" 
d="M186 398q17 161 27 180l-3 2l-7 -11q-77 -120 -150 -180q-9 29 -9 82.5t18 114.5t52.5 93.5t90 32.5t72.5 -3l-20 -105q-22 -117 -42 -175l2 -4q36 31 48 42l5 -8q-51 -53 -80 -69zM213 665q-9 4 -42.5 4t-47.5 -17q-25 -31 -33 -136q-2 -20 -2 -35t2 -24
q31 28 71.5 96.5t51.5 111.5z" />
    <glyph glyph-name="guillemotleft" unicode="&#xab;" horiz-adv-x="719" 
d="M289 483l42 -49q-27 -32 -82 -80t-101 -76q45 -26 98 -68.5t81 -71.5l-38 -58q-31 43 -86 97t-125 101q137 96 211 205zM548 483l42 -49q-27 -32 -82 -80t-101 -76q45 -26 98 -68.5t81 -71.5l-38 -58q-31 43 -86 97t-125 101q137 96 211 205z" />
    <glyph glyph-name="logicalnot" unicode="&#xac;" horiz-adv-x="596" 
d="M495 313q15 0 25 -11t10 -29v-190l-42 -28l-1 180q0 27 -5.5 32.5t-26.5 5.5h-393l23 40h410z" />
    <glyph glyph-name="registered" unicode="&#xae;" horiz-adv-x="770" 
d="M410 528q52 0 89 -25.5t37 -83.5q0 -87 -95 -104l-5 -7q14 -18 28 -39.5t26.5 -38.5t19.5 -25l18 -20q18 -22 39 -36l-18 -26q-95 61 -195 205l4 4q9 -3 19 -3q50 0 74 28.5t24 66.5q0 73 -79 73q-31 0 -63 -9v-318q8 -3 26 -7v-16h-124v16q14 2 33 8v323q-15 6 -33 9v16
h42q31 0 74.5 4.5t58.5 4.5zM424 666q129 0 207.5 -87t78.5 -201q0 -169 -98 -273t-266 -104q-120 0 -200.5 89t-80.5 198q0 167 93 272.5t266 105.5zM397 620q-140 0 -214 -82t-74 -198q0 -75 30 -140.5t91.5 -109t138.5 -43.5t134 23.5t91 63.5q70 81 70 193q0 74 -30 140
t-92.5 109.5t-144.5 43.5z" />
    <glyph glyph-name="macron" unicode="&#xaf;" horiz-adv-x="352" 
d="M103 865q42 10 79.5 10.5t68.5 0.5t65 -3l-53 -54q-43 2 -101 2t-105 -8z" />
    <glyph glyph-name="degree" unicode="&#xb0;" horiz-adv-x="366" 
d="M80.5 719.5q45.5 45.5 106.5 45.5t101 -38t40 -107t-46.5 -114t-107.5 -45t-100 38t-39 106.5t45.5 114zM258.5 702q-29.5 35 -77 35t-77.5 -32t-30 -90.5t31.5 -93.5t78 -35t75.5 33.5t29 90.5t-29.5 92z" />
    <glyph glyph-name="plusminus" unicode="&#xb1;" horiz-adv-x="621" 
d="M340 431h243l-54 -54h-189v-190l-54 -54v244h-238l54 54h184v183l54 54v-237zM48 -2l54 54h481l-54 -54h-481z" />
    <glyph glyph-name="twosuperior" unicode="&#xb2;" horiz-adv-x="354" 
d="M224 775q74 0 74 -65q0 -55 -49 -115t-114 -109l2 -6h117q47 0 85 29l6 -9l-69 -55l-211 1l-3 5q73 57 129 121.5t56 116t-49 51.5q-29 0 -94 -26l-5 13q62 48 125 48z" />
    <glyph glyph-name="threesuperior" unicode="&#xb3;" horiz-adv-x="407" 
d="M228 782q65 0 65 -68q0 -25 -21 -53t-50 -46l2 -4q10 2 15 2q27 0 43 -18.5t16 -41.5q0 -57 -46 -92.5t-98 -35.5t-83 22l19 40q39 -25 85 -25t62 16.5t16 47t-16 50t-45 23.5l-6 11q67 35 67 87.5t-42 52.5q-28 0 -72 -23l-10 14q69 41 99 41z" />
    <glyph glyph-name="acute" unicode="&#xb4;" 
d="M249 758h8l-15 -39q-29 -6 -74 -34.5t-113 -107.5l-14 17q45 63 71 94q60 70 137 70z" />
    <glyph glyph-name="mu" unicode="&#xb5;" horiz-adv-x="464" 
d="M199 515q-47 -241 -72 -453l9 -8q59 55 118 149t104 211q1 2 8 19t9 21.5t9 17.5t12 19q17 18 32 23q-2 -15 -6.5 -35.5t-22 -126.5t-42.5 -244q-7 -35 -19 -65l3 -2q109 100 178 186l4 -4q-41 -60 -110 -135t-117 -97q7 122 43 322l-3 2q-103 -210 -215 -310
q-6 -34 -17 -115t-18 -126l-46 1q14 106 42.5 328.5t46.5 355.5l-65 -47l2 11q7 10 19.5 25.5t47.5 43.5t66 33z" />
    <glyph glyph-name="mu" unicode="&#x3bc;" horiz-adv-x="464" 
d="M199 515q-47 -241 -72 -453l9 -8q59 55 118 149t104 211q1 2 8 19t9 21.5t9 17.5t12 19q17 18 32 23q-2 -15 -6.5 -35.5t-22 -126.5t-42.5 -244q-7 -35 -19 -65l3 -2q109 100 178 186l4 -4q-41 -60 -110 -135t-117 -97q7 122 43 322l-3 2q-103 -210 -215 -310
q-6 -34 -17 -115t-18 -126l-46 1q14 106 42.5 328.5t46.5 355.5l-65 -47l2 11q7 10 19.5 25.5t47.5 43.5t66 33z" />
    <glyph glyph-name="paragraph" unicode="&#xb6;" horiz-adv-x="557" 
d="M354 605q-76 0 -110.5 -73.5t-34.5 -193.5q0 -66 28 -112t72 -46q9 0 14 6q53 273 53 364q0 55 -22 55zM599 851q29 0 49 -5l-41 -54q-28 6 -59 6t-52 -15.5t-33 -36.5t-21.5 -55.5t-13 -58.5t-8.5 -60.5t-12.5 -82.5t-27 -186.5t-32.5 -226.5q-23 -151 -82.5 -220.5
t-155.5 -69.5q-22 0 -44 6l38 55q30 -8 64 -8t65 37t42 118l22 158q-30 -5 -51 -5q-81 0 -139.5 56.5t-58.5 165.5t80 187t186 78q28 0 56 -6q9 81 75 152t154 71z" />
    <glyph glyph-name="periodcentered" unicode="&#xb7;" horiz-adv-x="343" 
d="M178 390q19 -13 44 -39.5t36 -44.5l-90 -89q-5 5 -18 21q-34 40 -56 60z" />
    <glyph glyph-name="cedilla" unicode="&#xb8;" horiz-adv-x="391" 
d="M291 -130q0 -36 -37.5 -65t-88 -29t-71.5 40l45 39q21 -39 64 -39t43 15q0 26 -32 52.5t-78 42.5l113 95l17 -15q-12 -11 -65 -56q30 -8 60 -33.5t30 -46.5z" />
    <glyph glyph-name="onesuperior" unicode="&#xb9;" horiz-adv-x="308" 
d="M205 771q8 -3 8 -28.5t-6 -70t-18 -115.5t-16 -96l-51 -55l-2 4q36 227 47 310q-55 -29 -91 -56l-7 11q24 25 64.5 53t71.5 43z" />
    <glyph glyph-name="ordmasculine" unicode="&#xba;" horiz-adv-x="331" 
d="M262 600q0 -64 -50.5 -127t-116.5 -79q-26 10 -41 45.5t-15 70.5q0 66 50 127.5t116 78.5q25 -10 41 -47t16 -69zM94 541q0 -65 26 -107q90 34 90 133q0 66 -28 107q-88 -38 -88 -133z" />
    <glyph glyph-name="guillemotright" unicode="&#xbb;" horiz-adv-x="669" 
d="M346 434l42 49q73 -107 211 -205q-70 -47 -125 -101t-86 -97l-38 58q28 28 81 70.5t100 68.5h-1q-46 28 -101.5 76.5t-82.5 80.5zM87 434l42 49q73 -107 211 -205q-70 -47 -125 -101t-86 -97l-38 58q28 28 81 70.5t100 68.5h-1q-46 28 -101.5 76.5t-82.5 80.5z" />
    <glyph glyph-name="onequarter" unicode="&#xbc;" horiz-adv-x="1029" 
d="M680 792l49 -50q-78 -129 -267.5 -365.5t-339.5 -396.5l-19 21q15 20 159 204t237.5 315t180.5 272zM338 762q0 -56 -29 -198t-31 -156l-51 -55q-5 2 -5 13v4q6 61 28 173.5t30 188.5q-36 -15 -84 -51l-7 11q40 42 136 96q13 0 13 -26zM712 424h-2q-57 -135 -161 -244
l3 -4h135q15 123 25 248zM589 136q-52 0 -108 -8l-19 10q31 17 108 124.5t101 174.5q31 31 88 52q12 0 12 -21q-4 -67 -17.5 -155t-18.5 -137q82 0 134 21l9 -21q-60 -41 -146 -41q-3 -18 -6.5 -50.5t-7.5 -53.5l-48 -45q-3 1 -3 11t16 138z" />
    <glyph glyph-name="onehalf" unicode="&#xbd;" horiz-adv-x="1052" 
d="M726 792l49 -50q-78 -129 -267.5 -365.5t-339.5 -396.5l-19 21q15 20 159 204t237.5 315t180.5 272zM384 762q0 -56 -29 -198t-31 -156l-51 -55q-5 2 -5 13v4q6 61 28 173.5t30 188.5q-36 -15 -84 -51l-7 11q40 42 136 96q13 0 13 -26zM786 445q74 0 74 -65
q0 -61 -52 -126t-121 -118l2 -6h95q67 0 107 29l7 -15l-70 -48h-211l-4 17q189 154 189 243q0 53 -46 53q-25 0 -90 -25l-5 13q62 48 125 48z" />
    <glyph glyph-name="threequarters" unicode="&#xbe;" horiz-adv-x="1020" 
d="M680 792l49 -50q-78 -129 -267.5 -365.5t-339.5 -396.5l-19 21q15 20 159 204t237.5 315t180.5 272zM712 424h-2q-57 -135 -161 -244l3 -4h135q15 123 25 248zM683 135l-77 1q-62 0 -125 -8l-19 10q31 17 108 124.5t101 174.5q31 31 88 52q12 0 12 -21q-4 -67 -17.5 -155
t-18.5 -137q82 0 134 21l9 -21q-60 -41 -146 -41q-3 -18 -6.5 -50.5t-7.5 -53.5l-48 -45q-3 1 -3 11t16 138zM290 782q73 0 73 -71q0 -26 -23.5 -55.5t-56.5 -48.5l2 -4q12 2 17 2q31 0 48.5 -19.5t17.5 -42.5q0 -56 -53.5 -100.5t-108.5 -44.5q-22 0 -49 9.5t-43 24.5
l21 42q43 -26 95 -26t70 17t18 48.5t-18 52.5t-50 25l-7 21q66 31 66 83.5t-42 52.5q-27 0 -77 -23l-12 21q70 36 112 36z" />
    <glyph glyph-name="questiondown" unicode="&#xbf;" 
d="M310 387q17 -44 17 -91.5t-28.5 -92t-69.5 -79.5t-82 -70.5t-69.5 -82.5t-28.5 -96.5t20 -79t54 -29.5q61 0 113 44l3 -15q-72 -72 -140 -72q-119 0 -119 122q0 46 28 94t68.5 87t81.5 76q96 88 96 144t-17 84q55 34 69 58zM169 494l72 69q31 -24 67 -81l-70 -64
q-1 1 -26.5 31t-42.5 45z" />
    <glyph glyph-name="Agrave" unicode="&#xc0;" horiz-adv-x="673" 
d="M456 696l-106 3q-97 0 -134 -21q-16 -9 -34.5 -27t-28.5 -44q-24 -62 -24 -155q-31 -21 -69 -54q0 193 127 297q74 60 205 60q3 0 165 -9q-29 -58 -29 -322q0 -228 9.5 -284.5t20 -70.5t35.5 -14t72 28l4 -8q-54 -48 -117 -86q-45 0 -62 34q-10 20 -16 38t-10 58
q-4 54 -6 156h-182q-7 -13 -22 -45q-32 -63 -49 -86q-111 -152 -238 -152h-62l47 64q36 -9 77.5 -9t65 19t57.5 76t145 268t159 286zM457 324q-1 37 -1 98t1 123.5t1 65.5q-30 -54 -81.5 -154t-69.5 -133h150zM340 961q77 0 136 -70q27 -31 72 -94l-15 -18q-75 87 -123 116
q-17 10 -39 18.5t-24 8.5l-15 39h8z" />
    <glyph glyph-name="Aacute" unicode="&#xc1;" horiz-adv-x="685" 
d="M456 696l-106 3q-97 0 -134 -21q-16 -9 -34.5 -27t-28.5 -44q-24 -62 -24 -155q-31 -21 -69 -54q0 193 127 297q74 60 205 60q3 0 165 -9q-29 -58 -29 -322q0 -228 9.5 -284.5t20 -70.5t35.5 -14t72 28l4 -8q-54 -48 -117 -86q-45 0 -62 34q-10 20 -16 38t-10 58
q-4 54 -6 156h-182q-7 -13 -22 -45q-32 -63 -49 -86q-111 -152 -238 -152h-62l47 64q36 -9 77.5 -9t65 19t57.5 76t145 268t159 286zM457 324q-1 37 -1 98t1 123.5t1 65.5q-30 -54 -81.5 -154t-69.5 -133h150zM605 958h8l-15 -39q-29 -6 -74 -34.5t-113 -107.5l-14 17
q45 63 71 94q60 70 137 70z" />
    <glyph glyph-name="Acircumflex" unicode="&#xc2;" horiz-adv-x="673" 
d="M456 696l-106 3q-97 0 -134 -21q-16 -9 -34.5 -27t-28.5 -44q-24 -62 -24 -155q-31 -21 -69 -54q0 193 127 297q74 60 205 60q3 0 165 -9q-29 -58 -29 -322q0 -228 9.5 -284.5t20 -70.5t35.5 -14t72 28l4 -8q-54 -48 -117 -86q-45 0 -62 34q-10 20 -16 38t-10 58
q-4 54 -6 156h-182q-7 -13 -22 -45q-32 -63 -49 -86q-111 -152 -238 -152h-62l47 64q36 -9 77.5 -9t65 19t57.5 76t145 268t159 286zM457 324q-1 37 -1 98t1 123.5t1 65.5q-30 -54 -81.5 -154t-69.5 -133h150zM536 912q23 -9 60.5 -36t55.5 -46l-35 -33q-64 62 -109 76
q-46 -23 -106 -74l-10 9q40 44 72.5 69.5t71.5 34.5z" />
    <glyph glyph-name="Atilde" unicode="&#xc3;" horiz-adv-x="680" 
d="M456 696l-106 3q-97 0 -134 -21q-16 -9 -34.5 -27t-28.5 -44q-24 -62 -24 -155q-31 -21 -69 -54q0 193 127 297q74 60 205 60q3 0 165 -9q-29 -58 -29 -322q0 -228 9.5 -284.5t20 -70.5t35.5 -14t72 28l4 -8q-54 -48 -117 -86q-45 0 -62 34q-10 20 -16 38t-10 58
q-4 54 -6 156h-182q-7 -13 -22 -45q-32 -63 -49 -86q-111 -152 -238 -152h-62l47 64q36 -9 77.5 -9t65 19t57.5 76t145 268t159 286zM457 324q-1 37 -1 98t1 123.5t1 65.5q-30 -54 -81.5 -154t-69.5 -133h150zM489.5 845.5q-38.5 18.5 -60.5 18.5t-52.5 -13.5t-47.5 -28.5
l-5 15q49 50 115 76q22 0 60.5 -17.5t61 -17.5t54 10.5t46.5 21.5l8 -11q-56 -57 -119 -72q-22 0 -60.5 18.5z" />
    <glyph glyph-name="Adieresis" unicode="&#xc4;" horiz-adv-x="673" 
d="M456 696l-106 3q-97 0 -134 -21q-16 -9 -34.5 -27t-28.5 -44q-24 -62 -24 -155q-31 -21 -69 -54q0 193 127 297q74 60 205 60q3 0 165 -9q-29 -58 -29 -322q0 -228 9.5 -284.5t20 -70.5t35.5 -14t72 28l4 -8q-54 -48 -117 -86q-45 0 -62 34q-10 20 -16 38t-10 58
q-4 54 -6 156h-182q-7 -13 -22 -45q-32 -63 -49 -86q-111 -152 -238 -152h-62l47 64q36 -9 77.5 -9t65 19t57.5 76t145 268t159 286zM457 324q-1 37 -1 98t1 123.5t1 65.5q-30 -54 -81.5 -154t-69.5 -133h150zM360 861l54 50q33 -26 48 -52l-51 -55q-37 45 -51 57zM549 861
l54 50q28 -18 47 -52l-45 -55q-30 38 -56 57z" />
    <glyph glyph-name="Aring" unicode="&#xc5;" horiz-adv-x="673" 
d="M456 696l-106 3q-97 0 -134 -21q-16 -9 -34.5 -27t-28.5 -44q-24 -62 -24 -155q-31 -21 -69 -54q0 193 127 297q74 60 205 60q3 0 165 -9q-29 -58 -29 -322q0 -228 9.5 -284.5t20 -70.5t35.5 -14t72 28l4 -8q-54 -48 -117 -86q-45 0 -62 34q-10 20 -16 38t-10 58
q-4 54 -6 156h-182q-7 -13 -22 -45q-32 -63 -49 -86q-111 -152 -238 -152h-62l47 64q36 -9 77.5 -9t65 19t57.5 76t145 268t159 286zM457 324q-1 37 -1 98t1 123.5t1 65.5q-30 -54 -81.5 -154t-69.5 -133h150zM585.5 930q19.5 -16 19.5 -44t-22 -55t-52 -27t-48.5 16
t-18.5 41.5t18.5 49t45.5 35.5q38 0 57.5 -16zM548 836q35 11 35 34t-17.5 36t-42.5 13q-26 -14 -32 -46q0 -12 18 -24.5t39 -12.5z" />
    <glyph glyph-name="AE" unicode="&#xc6;" horiz-adv-x="868" 
d="M665 381l-134 2q-19 -123 -33 -190.5t-76 -127.5l4 -9h260q69 0 123 38l4 -8q-81 -62 -117 -87h-383l-4 9q87 18 115 169q8 44 17 98h-166q-54 -104 -71 -131q-50 -80 -107.5 -116t-130.5 -36h-62l47 64q36 -9 76.5 -9t65 21t60.5 78t150 266.5t162 283.5l-106 3
q-97 0 -134 -21q-16 -9 -34.5 -27t-28.5 -44q-24 -62 -24 -155q-31 -21 -69 -54q0 193 127 297q43 35 103 46.5t178 11.5l245 -2q119 0 152 1l-56 -59l-232 1q-7 -19 -10 -34l-34 -215h14l118 -4q52 0 97 10l5 -4q-18 -26 -47.5 -46t-63.5 -20zM526 694q-41 -39 -83.5 -115
t-58.5 -106q-70 -132 -76 -149h141q7 44 17.5 111t15.5 96t12 67q14 67 32 96z" />
    <glyph glyph-name="Ccedilla" unicode="&#xc7;" horiz-adv-x="527" 
d="M411 751q69 0 136 -20l-58 -75q-55 39 -113 52q-68 -1 -132 -61t-102.5 -154t-38.5 -185.5t39.5 -163t113.5 -89.5q68 12 176 93l9 -8q-35 -44 -92.5 -88t-106.5 -58q-37 -33 -50 -44q30 -8 60 -33.5t30 -46.5q0 -36 -37.5 -65t-88 -29t-71.5 40l45 39q21 -39 64 -39
t43 15q0 26 -32 52.5t-78 42.5l81 68q-86 11 -129.5 78t-43.5 154q0 115 52.5 237t141.5 205t182 83z" />
    <glyph glyph-name="Egrave" unicode="&#xc8;" horiz-adv-x="624" 
d="M421 381l-134 2q-19 -123 -33 -190.5t-76 -127.5l4 -8l237 -2q8 -1 17 -1q72 0 129 40l4 -8q-81 -62 -117 -87l-383 1l-4 8q87 18 115 169q18 94 34 197.5t24 154.5q20 125 44 165h-41q-100 0 -140.5 -54.5t-40.5 -187.5l-69 -54q0 114 41 195t140 138q35 20 149 20h157
q119 0 152 1l-56 -59l-232 1q-7 -19 -10 -34l-34 -215h14l118 -4q52 0 97 10l5 -4q-18 -26 -47.5 -46t-63.5 -20zM227 965q77 0 137 -70q26 -31 71 -94l-15 -18q-75 87 -123 116q-17 10 -39 18.5t-24 8.5l-15 39h8z" />
    <glyph glyph-name="Eacute" unicode="&#xc9;" horiz-adv-x="624" 
d="M421 381l-134 2q-19 -123 -33 -190.5t-76 -127.5l4 -8l237 -2q8 -1 17 -1q72 0 129 40l4 -8q-81 -62 -117 -87l-383 1l-4 8q87 18 115 169q18 94 34 197.5t24 154.5q20 125 44 165h-41q-100 0 -140.5 -54.5t-40.5 -187.5l-69 -54q0 114 41 195t140 138q35 20 149 20h157
q119 0 152 1l-56 -59l-232 1q-7 -19 -10 -34l-34 -215h14l118 -4q52 0 97 10l5 -4q-18 -26 -47.5 -46t-63.5 -20zM530 960h8l-15 -39q-29 -6 -74 -34.5t-113 -107.5l-14 17q45 63 72 94q59 70 136 70z" />
    <glyph glyph-name="Ecircumflex" unicode="&#xca;" horiz-adv-x="624" 
d="M421 381l-134 2q-19 -123 -33 -190.5t-76 -127.5l4 -8l237 -2q8 -1 17 -1q72 0 129 40l4 -8q-81 -62 -117 -87l-383 1l-4 8q87 18 115 169q18 94 34 197.5t24 154.5q20 125 44 165h-41q-100 0 -140.5 -54.5t-40.5 -187.5l-69 -54q0 114 41 195t140 138q35 20 149 20h157
q119 0 152 1l-56 -59l-232 1q-7 -19 -10 -34l-34 -215h14l118 -4q52 0 97 10l5 -4q-18 -26 -47.5 -46t-63.5 -20zM409 906q23 -9 60.5 -36t55.5 -46l-35 -33q-64 62 -109 76q-46 -23 -106 -74l-10 9q40 44 72.5 69.5t71.5 34.5z" />
    <glyph glyph-name="Edieresis" unicode="&#xcb;" horiz-adv-x="624" 
d="M421 381l-134 2q-19 -123 -33 -190.5t-76 -127.5l4 -8l237 -2q8 -1 17 -1q72 0 129 40l4 -8q-81 -62 -117 -87l-383 1l-4 8q87 18 115 169q18 94 34 197.5t24 154.5q20 125 44 165h-41q-100 0 -140.5 -54.5t-40.5 -187.5l-69 -54q0 114 41 195t140 138q35 20 149 20h157
q119 0 152 1l-56 -59l-232 1q-7 -19 -10 -34l-34 -215h14l118 -4q52 0 97 10l5 -4q-18 -26 -47.5 -46t-63.5 -20zM188 864l54 50q33 -26 48 -52l-51 -55q-37 45 -51 57zM377 864l54 50q28 -18 47 -52l-45 -55q-30 38 -56 57z" />
    <glyph glyph-name="Igrave" unicode="&#xcc;" horiz-adv-x="440" 
d="M309 -1l-209 1l-4 8q87 18 115 169q24 132 46 271.5t32.5 182.5t22.5 63h-67q-100 0 -140.5 -54.5t-40.5 -187.5l-69 -54q0 114 41 195t140 138q35 20 145 20h90l1 -3q-38 -24 -49 -88q-7 -41 -21 -134q-24 -152 -57 -340q-14 -62 -76 -121l4 -8q24 -1 57.5 -1t73 5.5
t78.5 32.5l4 -8q-102 -86 -117 -87zM201 959q77 0 137 -70q26 -31 71 -94l-15 -18q-75 87 -123 116q-17 10 -39 18.5t-24 8.5l-15 39h8z" />
    <glyph glyph-name="Iacute" unicode="&#xcd;" horiz-adv-x="459" 
d="M309 -1l-209 1l-4 8q87 18 115 169q24 132 46 271.5t32.5 182.5t22.5 63h-67q-100 0 -140.5 -54.5t-40.5 -187.5l-69 -54q0 114 41 195t140 138q35 20 145 20h90l1 -3q-38 -24 -49 -88q-7 -41 -21 -134q-24 -152 -57 -340q-14 -62 -76 -121l4 -8q24 -1 57.5 -1t73 5.5
t78.5 32.5l4 -8q-102 -86 -117 -87zM508 959h8l-15 -39q-29 -6 -74 -34.5t-113 -107.5l-14 17q45 63 72 94q59 70 136 70z" />
    <glyph glyph-name="Icircumflex" unicode="&#xce;" horiz-adv-x="439" 
d="M309 -1l-209 1l-4 8q87 18 115 169q24 132 46 271.5t32.5 182.5t22.5 63h-67q-100 0 -140.5 -54.5t-40.5 -187.5l-69 -54q0 114 41 195t140 138q35 20 145 20h90l1 -3q-38 -24 -49 -88q-7 -41 -21 -134q-24 -152 -57 -340q-14 -62 -76 -121l4 -8q24 -1 57.5 -1t73 5.5
t78.5 32.5l4 -8q-102 -86 -117 -87zM380 915q23 -9 60.5 -36t55.5 -46l-35 -33q-64 62 -109 76q-46 -23 -106 -74l-10 9q40 44 72.5 69.5t71.5 34.5z" />
    <glyph glyph-name="Idieresis" unicode="&#xcf;" horiz-adv-x="440" 
d="M309 -1l-209 1l-4 8q87 18 115 169q24 132 46 271.5t32.5 182.5t22.5 63h-67q-100 0 -140.5 -54.5t-40.5 -187.5l-69 -54q0 114 41 195t140 138q35 20 145 20h90l1 -3q-38 -24 -49 -88q-7 -41 -21 -134q-24 -152 -57 -340q-14 -62 -76 -121l4 -8q24 -1 57.5 -1t73 5.5
t78.5 32.5l4 -8q-102 -86 -117 -87zM207 861l54 50q33 -26 48 -52l-51 -55q-37 45 -51 57zM396 861l54 50q28 -18 47 -52l-45 -55q-30 38 -56 57z" />
    <glyph glyph-name="Eth" unicode="&#xd0;" horiz-adv-x="720" 
d="M177 419q38 0 62 -1q17 103 24 144q18 102 46 140q-82 0 -154 -60q-35 -30 -57 -81.5t-22 -116.5l-65 -56q0 177 106 271.5t306 94.5q132 0 194 -69.5t62 -181.5q0 -82 -32 -171t-86.5 -162.5t-135 -121.5t-167.5 -48h-170l-4 8q87 18 115 169q19 109 30 179
q-38 1 -101 1l32 62h17zM329 57q79 0 145 59.5t101.5 147.5t35.5 179q0 110 -57 183q-28 37 -76.5 58t-111.5 21q-12 -25 -16 -49.5t-39 -239.5q40 -1 93 -1t98 10l5 -4q-18 -26 -47.5 -46t-71.5 -20t-87 1q-2 -19 -28 -170q-10 -58 -76 -121l4 -8h128z" />
    <glyph glyph-name="Ntilde" unicode="&#xd1;" horiz-adv-x="813" 
d="M300 750h94q126 -363 184 -648q14 73 36 221.5t39.5 241t37.5 129.5q-21 1 -59.5 1t-86.5 -7l-1 2q31 37 70 49t122 12h54l1 -3q-38 -24 -49 -88l-76 -442q-17 -99 -45.5 -150.5t-86.5 -77.5l-4 8l27 15q-48 147 -116 337t-103 293q-17 -72 -34 -212t-28 -203
q-21 -115 -77.5 -171.5t-137.5 -56.5h-6l-54 1l47 64q36 -9 68.5 -9t47.5 16t25 66q25 129 44 264.5t29 201.5t22 90l-65 1h-3q-95 0 -135.5 -55.5t-40.5 -187.5l-69 -54q0 114 41 195t140 138q33 19 148 19zM516.5 846.5q-38.5 18.5 -60.5 18.5t-52.5 -13.5t-47.5 -28.5
l-5 15q49 50 115 76q22 0 60.5 -17.5t61 -17.5t54 10.5t46.5 21.5l8 -11q-56 -57 -119 -72q-22 0 -60.5 18.5z" />
    <glyph glyph-name="Ograve" unicode="&#xd2;" horiz-adv-x="587" 
d="M510 660q37 -71 37 -172.5t-45 -206t-125.5 -183t-175.5 -103.5q-81 21 -122 86t-41 156q0 166 105.5 321.5t253.5 194.5q76 -22 113 -93zM479 429q0 94 -33 166t-101 102q-102 -31 -170.5 -150.5t-68.5 -249.5q0 -87 36.5 -153t110.5 -93q97 29 161.5 141.5t64.5 236.5z
M292 963q77 0 136 -70q27 -31 72 -94l-15 -18q-75 87 -123 116q-17 10 -39 18.5t-24 8.5l-15 39h8z" />
    <glyph glyph-name="Oacute" unicode="&#xd3;" horiz-adv-x="609" 
d="M510 660q37 -71 37 -172.5t-45 -206t-125.5 -183t-175.5 -103.5q-81 21 -122 86t-41 156q0 166 105.5 321.5t253.5 194.5q76 -22 113 -93zM479 429q0 94 -33 166t-101 102q-102 -31 -170.5 -150.5t-68.5 -249.5q0 -87 36.5 -153t110.5 -93q97 29 161.5 141.5t64.5 236.5z
M506 960h8l-15 -39q-29 -6 -74 -34.5t-113 -107.5l-14 17q45 63 72 94q59 70 136 70z" />
    <glyph glyph-name="Ocircumflex" unicode="&#xd4;" horiz-adv-x="587" 
d="M510 660q37 -71 37 -172.5t-45 -206t-125.5 -183t-175.5 -103.5q-81 21 -122 86t-41 156q0 166 105.5 321.5t253.5 194.5q76 -22 113 -93zM479 429q0 94 -33 166t-101 102q-102 -31 -170.5 -150.5t-68.5 -249.5q0 -87 36.5 -153t110.5 -93q97 29 161.5 141.5t64.5 236.5z
M430 918q23 -9 60.5 -36t55.5 -46l-35 -33q-64 62 -109 76q-46 -23 -106 -74l-10 9q40 44 72.5 69.5t71.5 34.5z" />
    <glyph glyph-name="Otilde" unicode="&#xd5;" horiz-adv-x="579" 
d="M501 660q37 -71 37 -172.5t-45 -206t-125.5 -183t-175.5 -103.5q-81 21 -122 86t-41 156q0 166 105.5 321.5t253.5 194.5q76 -22 113 -93zM470 429q0 94 -33 166t-101 102q-102 -31 -170.5 -150.5t-68.5 -249.5q0 -87 36.5 -153t110.5 -93q97 29 161.5 141.5t64.5 236.5z
M400.5 855.5q-38.5 18.5 -60.5 18.5t-52.5 -13.5t-47.5 -28.5l-5 15q49 50 115 76q22 0 60.5 -17.5t61 -17.5t54 10.5t46.5 21.5l8 -11q-56 -57 -119 -72q-22 0 -60.5 18.5z" />
    <glyph glyph-name="Odieresis" unicode="&#xd6;" horiz-adv-x="557" 
d="M510 660q37 -71 37 -172.5t-45 -206t-125.5 -183t-175.5 -103.5q-81 21 -122 86t-41 156q0 166 105.5 321.5t253.5 194.5q76 -22 113 -93zM479 429q0 94 -33 166t-101 102q-102 -31 -170.5 -150.5t-68.5 -249.5q0 -87 36.5 -153t110.5 -93q97 29 161.5 141.5t64.5 236.5z
M265 867l54 50q33 -26 48 -52l-51 -55q-37 45 -51 57zM454 867l54 50q28 -18 47 -52l-45 -55q-30 38 -56 57z" />
    <glyph glyph-name="multiply" unicode="&#xd7;" horiz-adv-x="551" 
d="M102 501q62 -97 185 -211l190 211l22 -14l-194 -216l70.5 -70.5t51.5 -52.5q42 -44 77 -89v-1l-53 -52q-42 52 -111 121l-84 84l-194 -214l-17 18l194 215q-124 115 -190 219z" />
    <glyph glyph-name="Oslash" unicode="&#xd8;" horiz-adv-x="587" 
d="M538 788l-50 -96q59 -72 59 -203q0 -103 -45 -207.5t-125.5 -183t-175.5 -103.5q-33 8 -65 28q-20 -36 -55 -106l-43 59q36 60 52 88q-52 65 -52 173q0 166 105.5 321.5t253.5 194.5q36 -11 60 -30q32 62 49 94zM414.5 192.5q64.5 112.5 64.5 225.5t-38 185
q-187 -355 -265 -503q31 -33 77 -49q97 29 161.5 141.5zM106 297q0 -84 34 -148q143 250 275 495q-30 34 -70 53q-102 -31 -170.5 -150.5t-68.5 -249.5z" />
    <glyph glyph-name="Ugrave" unicode="&#xd9;" horiz-adv-x="803" 
d="M320 750h94l1 -3q-10 -7 -24 -29.5t-22 -51.5q-72 -392 -72 -479q0 -122 80 -122q34 0 71.5 35.5t66.5 85.5q62 109 78 185l64 323q7 18 27 31t34.5 17t39.5 9l1 -3q-38 -24 -49 -88q-6 -35 -23 -132q-57 -327 -57 -372.5t20.5 -67.5t55 -22t81.5 28l4 -8
q-54 -48 -117 -86q-103 1 -103 141q0 43 12 115h-5q-35 -96 -116 -176.5t-143 -80.5q-95 0 -95 160q0 53 9 109.5t19 129.5l16 112q15 102 25.5 135t20.5 50h-80q-95 0 -134.5 -56.5t-39.5 -186.5l-69 -54q0 114 41 195t140 138q33 19 148 19zM397 958q77 0 137 -70
q26 -31 71 -94l-15 -18q-75 87 -123 116q-17 10 -39 18.5t-24 8.5l-15 39h8z" />
    <glyph glyph-name="Uacute" unicode="&#xda;" horiz-adv-x="803" 
d="M320 750h94l1 -3q-10 -7 -24 -29.5t-22 -51.5q-72 -392 -72 -479q0 -122 80 -122q34 0 71.5 35.5t66.5 85.5q62 109 78 185l64 323q7 18 27 31t34.5 17t39.5 9l1 -3q-38 -24 -49 -88q-6 -35 -23 -132q-57 -327 -57 -372.5t20.5 -67.5t55 -22t81.5 28l4 -8
q-54 -48 -117 -86q-103 1 -103 141q0 43 12 115h-5q-35 -96 -116 -176.5t-143 -80.5q-95 0 -95 160q0 53 9 109.5t19 129.5l16 112q15 102 25.5 135t20.5 50h-80q-95 0 -134.5 -56.5t-39.5 -186.5l-69 -54q0 114 41 195t140 138q33 19 148 19zM687 961h8l-15 -39
q-29 -6 -74 -34.5t-113 -107.5l-14 17q45 63 71 94q60 70 137 70z" />
    <glyph glyph-name="Ucircumflex" unicode="&#xdb;" horiz-adv-x="803" 
d="M320 750h94l1 -3q-10 -7 -24 -29.5t-22 -51.5q-72 -392 -72 -479q0 -122 80 -122q34 0 71.5 35.5t66.5 85.5q62 109 78 185l64 323q7 18 27 31t34.5 17t39.5 9l1 -3q-38 -24 -49 -88q-6 -35 -23 -132q-57 -327 -57 -372.5t20.5 -67.5t55 -22t81.5 28l4 -8
q-54 -48 -117 -86q-103 1 -103 141q0 43 12 115h-5q-35 -96 -116 -176.5t-143 -80.5q-95 0 -95 160q0 53 9 109.5t19 129.5l16 112q15 102 25.5 135t20.5 50h-80q-95 0 -134.5 -56.5t-39.5 -186.5l-69 -54q0 114 41 195t140 138q33 19 148 19zM586 926q23 -9 60.5 -36
t55.5 -46l-35 -33q-64 62 -109 76q-46 -23 -106 -74l-10 9q40 44 72.5 69.5t71.5 34.5z" />
    <glyph glyph-name="Udieresis" unicode="&#xdc;" horiz-adv-x="803" 
d="M320 750h94l1 -3q-10 -7 -24 -29.5t-22 -51.5q-72 -392 -72 -479q0 -122 80 -122q34 0 71.5 35.5t66.5 85.5q62 109 78 185l64 323q7 18 27 31t34.5 17t39.5 9l1 -3q-38 -24 -49 -88q-6 -35 -23 -132q-57 -327 -57 -372.5t20.5 -67.5t55 -22t81.5 28l4 -8
q-54 -48 -117 -86q-103 1 -103 141q0 43 12 115h-5q-35 -96 -116 -176.5t-143 -80.5q-95 0 -95 160q0 53 9 109.5t19 129.5l16 112q15 102 25.5 135t20.5 50h-80q-95 0 -134.5 -56.5t-39.5 -186.5l-69 -54q0 114 41 195t140 138q33 19 148 19zM403 871l54 50q33 -26 48 -52
l-51 -55q-37 45 -51 57zM592 871l54 50q28 -18 47 -52l-45 -55q-30 38 -56 57z" />
    <glyph glyph-name="Yacute" unicode="&#xdd;" horiz-adv-x="678" 
d="M638 961h8l-15 -39q-29 -6 -74 -34.5t-113 -107.5l-14 17q45 63 72 94q59 70 136 70zM226 757q33 0 61.5 -35.5t55.5 -123.5t38 -134q31 -126 51 -228q136 237 177.5 318.5t41.5 99t-18.5 24t-73.5 6.5l-1 4l75 45h39q55 0 55 -40q0 -45 -152 -313q-65 -114 -67 -118
q-121 -227 -190 -313t-170 -132q-75 10 -167 82l58 42q65 -60 127 -60q48 0 94.5 59.5t127.5 213.5q-7 25 -30 117t-36.5 142.5t-34.5 122.5q-41 140 -75 182q-67 0 -99 -50.5t-32 -159.5l-69 -54q0 118 63 210.5t151 92.5z" />
    <glyph glyph-name="Thorn" unicode="&#xde;" horiz-adv-x="626" 
d="M376 756.5q60 56.5 131.5 56.5t71.5 -67q0 -78 -69 -136t-164 -83q-25 -169 -33 -211l3 -1q43 74 100.5 130t111.5 73q18 -29 24.5 -63t6.5 -100.5t-26 -148t-77.5 -143.5t-111.5 -62q-35 0 -64 28q-2 -7 -7 -28q-62 -258 -238 -258q-21 0 -44 6l38 55q30 -8 66 -8
t65.5 30.5t43.5 119t36 254.5q34 254 44 315q-13 -2 -37 -2q-118 0 -195 72l58 61q77 -79 182 -84q3 21 9 52q15 86 75 142.5zM346 54q78 0 109.5 65.5t31.5 212.5q0 79 -9 97h-1q-26 0 -90 -62t-78 -119q-21 -87 -26 -178q8 -6 30 -11t33 -5zM525 686q0 34 -18.5 56.5
t-51.5 22.5q-74 0 -90 -106q-6 -37 -14 -93q67 10 120.5 41t53.5 79z" />
    <glyph glyph-name="germandbls" unicode="&#xdf;" horiz-adv-x="466" 
d="M340 823q100 0 100 -105q0 -61 -56 -134q-24 -31 -48 -61q-57 -71 -57 -127q0 -33 75 -98q27 -24 50.5 -59.5t23.5 -69.5q0 -67 -58.5 -120t-124 -53t-90.5 23l51 53q48 -38 96 -38q31 0 53.5 33.5t22.5 62.5t-25.5 63t-55.5 60.5t-55.5 61t-25.5 62.5t16.5 58t40 58
t47.5 58q57 71 57 148q0 97 -57 97q-61 0 -107 -63.5t-61 -149t-38.5 -276t-40.5 -294t-85.5 -166.5t-141.5 -63q-30 0 -58 14l40 51q37 -5 59 -5q63 0 86 29t40.5 123.5t40 287.5t43 299.5t85.5 173t158 66.5z" />
    <glyph glyph-name="agrave" unicode="&#xe0;" horiz-adv-x="408" 
d="M252 500q72 0 97 -5l-6 -29q-9 -46 -25 -138q-25 -168 -60 -274l3 -2q87 63 210 234l10 -7q-72 -105 -145 -186.5t-122 -102.5q-1 12 -1 47.5t5 73t16.5 90.5t17.5 87l-3 2q-62 -105 -114 -174.5t-121 -130.5q-13 45 -13 131t26.5 182t78.5 149t146 53zM111 418
q-24 -31 -36 -129t-12 -151t6 -71q10 0 32 33.5t23 34.5q38 47 95.5 155.5t57.5 152.5q-21 6 -62 6q-80 0 -104 -31zM112 758q77 0 136 -70q27 -31 72 -94l-15 -18q-75 87 -123 116q-17 10 -39 18.5t-24 8.5l-15 39h8z" />
    <glyph glyph-name="aacute" unicode="&#xe1;" 
d="M254 500q72 0 97 -5l-6 -29q-9 -46 -25 -138q-25 -168 -60 -274l3 -2q87 63 210 234l10 -7q-72 -105 -145 -186.5t-122 -102.5q-1 12 -1 47.5t5 73t16.5 90.5t17.5 87l-3 2q-62 -105 -114 -174.5t-121 -130.5q-13 45 -13 131t26.5 182t78.5 149t146 53zM113 418
q-24 -31 -36 -129t-12 -151t6 -71q10 0 32 33.5t23 34.5q38 47 95.5 155.5t57.5 152.5q-21 6 -62 6q-80 0 -104 -31zM423 758h8l-15 -39q-29 -6 -74 -34.5t-113 -107.5l-14 17q45 63 71 94q60 70 137 70z" />
    <glyph glyph-name="acircumflex" unicode="&#xe2;" 
d="M254 500q72 0 97 -5l-6 -29q-9 -46 -25 -138q-25 -168 -60 -274l3 -2q87 63 210 234l10 -7q-72 -105 -145 -186.5t-122 -102.5q-1 12 -1 47.5t5 73t16.5 90.5t17.5 87l-3 2q-62 -105 -114 -174.5t-121 -130.5q-13 45 -13 131t26.5 182t78.5 149t146 53zM113 418
q-24 -31 -36 -129t-12 -151t6 -71q10 0 32 33.5t23 34.5q38 47 95.5 155.5t57.5 152.5q-21 6 -62 6q-80 0 -104 -31zM272 765q23 -9 60.5 -36t55.5 -46l-35 -33q-64 62 -109 76q-46 -23 -106 -74l-10 9q40 44 72.5 69.5t71.5 34.5z" />
    <glyph glyph-name="atilde" unicode="&#xe3;" horiz-adv-x="412" 
d="M254 500q72 0 97 -5l-6 -29q-9 -46 -25 -138q-25 -168 -60 -274l3 -2q87 63 210 234l10 -7q-72 -105 -145 -186.5t-122 -102.5q-1 12 -1 47.5t5 73t16.5 90.5t17.5 87l-3 2q-62 -105 -114 -174.5t-121 -130.5q-13 45 -13 131t26.5 182t78.5 149t146 53zM113 418
q-24 -31 -36 -129t-12 -151t6 -71q10 0 32 33.5t23 34.5q38 47 95.5 155.5t57.5 152.5q-21 6 -62 6q-80 0 -104 -31zM278.5 672.5q-38.5 18.5 -60.5 18.5t-52.5 -13.5t-47.5 -28.5l-5 15q49 50 115 76q22 0 60.5 -17.5t61 -17.5t54 10.5t46.5 21.5l8 -11q-56 -57 -119 -72
q-22 0 -60.5 18.5z" />
    <glyph glyph-name="adieresis" unicode="&#xe4;" 
d="M254 500q72 0 97 -5l-6 -29q-9 -46 -25 -138q-25 -168 -60 -274l3 -2q87 63 210 234l10 -7q-72 -105 -145 -186.5t-122 -102.5q-1 12 -1 47.5t5 73t16.5 90.5t17.5 87l-3 2q-62 -105 -114 -174.5t-121 -130.5q-13 45 -13 131t26.5 182t78.5 149t146 53zM113 418
q-24 -31 -36 -129t-12 -151t6 -71q10 0 32 33.5t23 34.5q38 47 95.5 155.5t57.5 152.5q-21 6 -62 6q-80 0 -104 -31zM140 709l54 50q33 -26 48 -52l-51 -55q-37 45 -51 57zM329 709l54 50q28 -18 47 -52l-45 -55q-30 38 -56 57z" />
    <glyph glyph-name="aring" unicode="&#xe5;" 
d="M254 500q72 0 97 -5l-6 -29q-9 -46 -25 -138q-25 -168 -60 -274l3 -2q87 63 210 234l10 -7q-72 -105 -145 -186.5t-122 -102.5q-1 12 -1 47.5t5 73t16.5 90.5t17.5 87l-3 2q-62 -105 -114 -174.5t-121 -130.5q-13 45 -13 131t26.5 182t78.5 149t146 53zM113 418
q-24 -31 -36 -129t-12 -151t6 -71q10 0 32 33.5t23 34.5q38 47 95.5 155.5t57.5 152.5q-21 6 -62 6q-80 0 -104 -31zM335.5 758q19.5 -16 19.5 -44t-22 -55t-52 -27t-48.5 16t-18.5 41.5t18.5 49t45.5 35.5q38 0 57.5 -16zM298 664q35 11 35 34t-17.5 36t-42.5 13
q-26 -14 -32 -46q0 -12 18 -24.5t39 -12.5z" />
    <glyph glyph-name="ae" unicode="&#xe6;" horiz-adv-x="527" 
d="M16 -15q-13 45 -13 131t29 188.5t84 149t132.5 46.5t102.5 -5l-6 -29q-1 -6 -5 -22t-5 -22q77 92 139 92q51 0 51 -40q0 -97 -221 -244q-1 -11 -1 -28q0 -105 69 -162q97 74 221 247l10 -7q-72 -105 -145 -186.5t-122 -102.5q-50 12 -75 67.5t-25 119.5t18 110l-3 2
q-62 -105 -114 -174.5t-121 -130.5zM279 443q-21 6 -69.5 6t-74.5 -13.5t-38 -47t-22 -115.5t-10 -135t6 -71q10 0 32 33.5t23 34.5q38 47 95.5 155.5t57.5 152.5zM440 465q-51 0 -83.5 -58.5t-47.5 -152.5q62 40 110 97t48 93q0 21 -27 21z" />
    <glyph glyph-name="ccedilla" unicode="&#xe7;" horiz-adv-x="310" 
d="M233 514q49 0 78 -27l-44 -52q-23 39 -60 39q-55 0 -95.5 -86t-40.5 -197.5t66 -147.5q103 74 237 268l10 -6q-71 -107 -146 -194.5t-129 -115.5q-44 -37 -52 -45q30 -8 60 -33.5t30 -46.5q0 -36 -37.5 -65t-88 -29t-71.5 40l45 39q21 -39 64 -39t43 15q0 26 -32 52.5
t-78 42.5l83 70q-72 33 -72 188q0 72 27 137t65.5 105.5t76 64t61.5 23.5z" />
    <glyph glyph-name="egrave" unicode="&#xe8;" horiz-adv-x="298" 
d="M209 474q-50 0 -83 -62t-48 -158q62 40 110 97t48 90t-27 33zM137.5 465.5q55.5 48.5 106 48.5t50.5 -40q0 -97 -221 -244q-1 -11 -1 -28q0 -113 68 -163q99 76 222 247l10 -7q-72 -105 -145 -186.5t-122 -102.5q-50 12 -75 66.5t-25 128.5t38.5 153t94 127.5zM69 758
q77 0 137 -70q26 -31 71 -94l-15 -18q-75 87 -123 116q-17 10 -39 18.5t-24 8.5l-15 39h8z" />
    <glyph glyph-name="eacute" unicode="&#xe9;" horiz-adv-x="305" 
d="M209 474q-50 0 -83 -62t-48 -158q62 40 110 97t48 90t-27 33zM137.5 465.5q55.5 48.5 106 48.5t50.5 -40q0 -97 -221 -244q-1 -11 -1 -28q0 -113 68 -163q99 76 222 247l10 -7q-72 -105 -145 -186.5t-122 -102.5q-50 12 -75 66.5t-25 128.5t38.5 153t94 127.5zM389 758h8
l-15 -39q-29 -6 -74 -34.5t-113 -107.5l-14 17q45 63 71 94q60 70 137 70z" />
    <glyph glyph-name="ecircumflex" unicode="&#xea;" horiz-adv-x="298" 
d="M208 474q-50 0 -83 -62t-48 -158q62 40 110 97t48 90t-27 33zM136.5 465.5q55.5 48.5 106 48.5t50.5 -40q0 -97 -221 -244q-1 -11 -1 -28q0 -113 68 -163q99 76 222 247l10 -7q-72 -105 -145 -186.5t-122 -102.5q-50 12 -75 66.5t-25 128.5t38.5 153t94 127.5zM264 762
q23 -9 60.5 -36t55.5 -46l-35 -33q-64 62 -109 76q-46 -23 -106 -74l-10 9q40 44 72.5 69.5t71.5 34.5z" />
    <glyph glyph-name="edieresis" unicode="&#xeb;" horiz-adv-x="300" 
d="M209 474q-50 0 -83 -62t-48 -158q62 40 110 97t48 90t-27 33zM137.5 465.5q55.5 48.5 106 48.5t50.5 -40q0 -97 -221 -244q-1 -11 -1 -28q0 -113 68 -163q99 76 222 247l10 -7q-72 -105 -145 -186.5t-122 -102.5q-50 12 -75 66.5t-25 128.5t38.5 153t94 127.5zM95 682
l54 50q33 -26 48 -52l-51 -55q-37 45 -51 57zM284 682l54 50q28 -18 47 -52l-45 -55q-30 38 -56 57z" />
    <glyph glyph-name="igrave" unicode="&#xec;" horiz-adv-x="222" 
d="M27 -10q-2 24 -2 57t8 90.5t26 155t28 160.5l-70 -51l2 11q7 10 19.5 25.5t47.5 43.5t66 33q-6 -39 -21 -151q-30 -228 -59 -309l2 -3q86 61 210 234l11 -7q-72 -105 -145 -186.5t-123 -102.5zM-50 763q77 0 136 -70q27 -31 72 -94l-15 -18q-75 87 -123 116
q-17 10 -39 18.5t-24 8.5l-15 39h8z" />
    <glyph glyph-name="iacute" unicode="&#xed;" horiz-adv-x="219" 
d="M22 -10q-2 24 -2 57t8 90.5t26 155t28 160.5l-70 -51l2 11q7 10 19.5 25.5t47.5 43.5t66 33q-6 -39 -21 -151q-30 -228 -59 -309l2 -3q86 61 210 234l11 -7q-72 -105 -145 -186.5t-123 -102.5zM286 760h8l-15 -39q-29 -6 -74 -34.5t-113 -107.5l-14 17q45 63 72 94
q59 70 136 70z" />
    <glyph glyph-name="icircumflex" unicode="&#xee;" horiz-adv-x="221" 
d="M26 -10q-2 24 -2 57t8 90.5t26 155t28 160.5l-70 -51l2 11q7 10 19.5 25.5t47.5 43.5t66 33q-6 -39 -21 -151q-30 -228 -59 -309l2 -3q86 61 210 234l11 -7q-72 -105 -145 -186.5t-123 -102.5zM153 766q23 -9 60.5 -36t55.5 -46l-35 -33q-64 62 -109 76q-46 -23 -106 -74
l-10 9q40 44 72.5 69.5t71.5 34.5z" />
    <glyph glyph-name="idieresis" unicode="&#xef;" horiz-adv-x="224" 
d="M30 -10q-2 24 -2 57t8 90.5t26 155t28 160.5l-70 -51l2 11q7 10 19.5 25.5t47.5 43.5t66 33q-6 -39 -21 -151q-30 -228 -59 -309l2 -3q86 61 210 234l11 -7q-72 -105 -145 -186.5t-123 -102.5zM-15 708l54 50q33 -26 48 -52l-51 -55q-37 45 -51 57zM174 708l54 50
q28 -18 47 -52l-45 -55q-30 38 -56 57z" />
    <glyph glyph-name="eth" unicode="&#xf0;" horiz-adv-x="370" 
d="M331 304q0 -107 -53.5 -189.5t-170.5 -123.5q-42 18 -68.5 75.5t-26.5 111.5q0 92 44 173t111 128l16 -18q-53 -46 -82 -113t-29 -138q0 -108 62 -179q143 62 143 263t-97 346l-119 -65l-15 36l109 64q-81 102 -199 137l48 38q119 -26 205 -143l104 61l16 -46l-95 -52
q97 -160 97 -366z" />
    <glyph glyph-name="ntilde" unicode="&#xf1;" horiz-adv-x="452" 
d="M359 514q17 -14 17 -79t-35 -218.5t-37 -162.5l3 -2q89 64 210 234l10 -7q-69 -102 -142.5 -185t-124.5 -104q-2 24 -2 38q0 64 22.5 193t22.5 197l-4 2q-60 -54 -130 -171.5t-115 -258.5q-23 26 -23 64q0 32 42 304l14 90l-3 2l-66 -48l2 11q7 10 19.5 25.5t47.5 43.5
t66 33q-7 -42 -21 -155.5t-24 -167.5l3 -2q59 115 125.5 206.5t122.5 117.5zM262.5 670.5q-38.5 18.5 -60.5 18.5t-52.5 -13.5t-47.5 -28.5l-5 15q49 50 115 76q22 0 60.5 -17.5t61 -17.5t54 10.5t46.5 21.5l8 -11q-56 -57 -119 -72q-22 0 -60.5 18.5z" />
    <glyph glyph-name="ograve" unicode="&#xf2;" horiz-adv-x="367" 
d="M328 325q0 -103 -72 -205t-166 -129q-38 17 -60 74t-22 113q0 108 71.5 207.5t166.5 126.5q36 -17 59 -76t23 -111zM74 227q0 -39 2 -63q5 -68 41 -133q145 62 145 245q0 39 -2 64q-5 67 -41 132q-77 -35 -111 -95.5t-34 -149.5zM78 758q77 0 136 -70q27 -31 72 -94
l-15 -18q-75 87 -123 116q-17 10 -39 18.5t-24 8.5l-15 39h8z" />
    <glyph glyph-name="oacute" unicode="&#xf3;" horiz-adv-x="365" 
d="M325 325q0 -103 -72 -205t-166 -129q-38 17 -60 74t-22 113q0 108 71.5 207.5t166.5 126.5q36 -17 59 -76t23 -111zM71 227q0 -39 2 -63q5 -68 41 -133q145 62 145 245q0 39 -2 64q-5 67 -41 132q-77 -35 -111 -95.5t-34 -149.5zM399 760h8l-15 -39q-29 -6 -74 -34.5
t-113 -107.5l-14 17q45 63 71 94q60 70 137 70z" />
    <glyph glyph-name="ocircumflex" unicode="&#xf4;" horiz-adv-x="359" 
d="M325 325q0 -103 -72 -205t-166 -129q-38 17 -60 74t-22 113q0 108 71.5 207.5t166.5 126.5q36 -17 59 -76t23 -111zM71 227q0 -39 2 -63q5 -68 41 -133q145 62 145 245q0 39 -2 64q-5 67 -41 132q-77 -35 -111 -95.5t-34 -149.5zM273 765q23 -9 60.5 -36t55.5 -46
l-35 -33q-64 62 -109 76q-46 -23 -106 -74l-10 9q40 44 72.5 69.5t71.5 34.5z" />
    <glyph glyph-name="otilde" unicode="&#xf5;" horiz-adv-x="364" 
d="M325 325q0 -103 -72 -205t-166 -129q-38 17 -60 74t-22 113q0 108 71.5 207.5t166.5 126.5q36 -17 59 -76t23 -111zM71 227q0 -39 2 -63q5 -68 41 -133q145 62 145 245q0 39 -2 64q-5 67 -41 132q-77 -35 -111 -95.5t-34 -149.5zM229.5 654.5q-38.5 18.5 -60.5 18.5
t-52.5 -13.5t-47.5 -28.5l-5 15q49 50 115 76q22 0 60.5 -17.5t61 -17.5t54 10.5t46.5 21.5l8 -11q-56 -57 -119 -72q-22 0 -60.5 18.5z" />
    <glyph glyph-name="odieresis" unicode="&#xf6;" horiz-adv-x="367" 
d="M327 325q0 -103 -72 -205t-166 -129q-38 17 -60 74t-22 113q0 108 71.5 207.5t166.5 126.5q36 -17 59 -76t23 -111zM73 227q0 -39 2 -63q5 -68 41 -133q145 62 145 245q0 39 -2 64q-5 67 -41 132q-77 -35 -111 -95.5t-34 -149.5zM107 682l54 50q33 -26 48 -52l-51 -55
q-37 45 -51 57zM296 682l54 50q28 -18 47 -52l-45 -55q-30 38 -56 57z" />
    <glyph glyph-name="divide" unicode="&#xf7;" horiz-adv-x="539" 
d="M208 489l72 69q29 -18 62 -81l-65 -63q-15 10 -36 36.5t-33 38.5zM208 134l72 68q16 -10 31.5 -40.5t30.5 -39.5l-65 -64q-13 9 -33 37.5t-36 38.5zM343 286l-292 5h-22l54 54q25 1 65 1l262 -4q64 0 98 3l-54 -54q-33 -5 -111 -5z" />
    <glyph glyph-name="oslash" unicode="&#xf8;" horiz-adv-x="365" 
d="M325 325q0 -103 -72 -205t-166 -129q-23 10 -41 36l-37 -63l-21 23l42 70q-25 56 -25 121q0 108 71.5 207.5t166.5 126.5q21 -10 37 -35l47 78l21 -15l-53 -89q30 -63 30 -126zM259 276q0 60 -8 100l-165 -281q13 -38 28 -64q145 62 145 245zM105 376.5
q-34 -60.5 -34 -135t5 -106.5l166 278q-7 24 -26 59q-77 -35 -111 -95.5z" />
    <glyph glyph-name="ugrave" unicode="&#xf9;" horiz-adv-x="460" 
d="M251 28q0 84 43 285l-3 2q-57 -115 -120.5 -206.5t-117.5 -117.5q-11 37 -11 92t15 162l27 204l-65 -47l2 11q7 10 19.5 25.5t47.5 43.5t66 33q-54 -276 -54 -408q0 -16 5 -41q49 48 107 140.5t102 207.5q32 86 69 100l-71 -406q-5 -27 -15 -54l3 -2q96 69 228 259l10 -6
q-75 -112 -153.5 -202.5t-131.5 -112.5q-2 24 -2 38zM83 758q77 0 137 -70q26 -31 71 -94l-15 -18q-75 87 -123 116q-17 10 -39 18.5t-24 8.5l-15 39h8z" />
    <glyph glyph-name="uacute" unicode="&#xfa;" horiz-adv-x="461" 
d="M251 28q0 84 43 285l-3 2q-57 -115 -120.5 -206.5t-117.5 -117.5q-11 37 -11 92t15 162l27 204l-65 -47l2 11q7 10 19.5 25.5t47.5 43.5t66 33q-54 -276 -54 -408q0 -16 5 -41q49 48 107 140.5t102 207.5q32 86 69 100l-71 -406q-5 -27 -15 -54l3 -2q96 69 228 259l10 -6
q-75 -112 -153.5 -202.5t-131.5 -112.5q-2 24 -2 38zM437 758h8l-15 -39q-29 -6 -74 -34.5t-113 -107.5l-14 17q45 63 71 94q60 70 137 70z" />
    <glyph glyph-name="ucircumflex" unicode="&#xfb;" horiz-adv-x="461" 
d="M251 28q0 84 43 285l-3 2q-57 -115 -120.5 -206.5t-117.5 -117.5q-11 37 -11 92t15 162l27 204l-65 -47l2 11q7 10 19.5 25.5t47.5 43.5t66 33q-54 -276 -54 -408q0 -16 5 -41q49 48 107 140.5t102 207.5q32 86 69 100l-71 -406q-5 -27 -15 -54l3 -2q96 69 228 259l10 -6
q-75 -112 -153.5 -202.5t-131.5 -112.5q-2 24 -2 38zM298 765q23 -9 60.5 -36t55.5 -46l-35 -33q-64 62 -109 76q-46 -23 -106 -74l-10 9q40 44 72.5 69.5t71.5 34.5z" />
    <glyph glyph-name="udieresis" unicode="&#xfc;" horiz-adv-x="461" 
d="M251 28q0 84 43 285l-3 2q-57 -115 -120.5 -206.5t-117.5 -117.5q-11 37 -11 92t15 162l27 204l-65 -47l2 11q7 10 19.5 25.5t47.5 43.5t66 33q-54 -276 -54 -408q0 -16 5 -41q49 48 107 140.5t102 207.5q32 86 69 100l-71 -406q-5 -27 -15 -54l3 -2q96 69 228 259l10 -6
q-75 -112 -153.5 -202.5t-131.5 -112.5q-2 24 -2 38zM142 728l54 50q33 -26 48 -52l-51 -55q-37 45 -51 57zM331 728l54 50q28 -18 47 -52l-45 -55q-30 38 -56 57z" />
    <glyph glyph-name="yacute" unicode="&#xfd;" horiz-adv-x="421" 
d="M101 99v-23l4 -10q49 47 106.5 140t101.5 208q1 2 8 19t9 21.5t9 17.5t13 19q16 18 31 23q-2 -15 -6.5 -35.5t-10 -49.5t-14 -84.5t-19 -141.5t-16.5 -128q-19 -139 -82.5 -214.5t-172.5 -75.5q-41 0 -77 9l39 61q43 -13 81 -13q71 0 101 28.5t42 121.5q19 156 46 321
l-3 2q-57 -115 -120.5 -206.5t-117.5 -117.5q-10 34 -10 86t3 81.5t13 102.5l25 188l-65 -47l2 11q7 10 19.5 25.5t47.5 43.5t66 33q-53 -275 -53 -416zM445 758h8l-15 -39q-29 -6 -74 -34.5t-113 -107.5l-14 17q45 63 71 94q60 70 137 70z" />
    <glyph glyph-name="thorn" unicode="&#xfe;" horiz-adv-x="365" 
d="M92 -144l-213 -116l-9 11q71 39 89 72.5t32.5 128.5t35.5 255t34 243l24 156q13 86 84 165.5t149 79.5q29 0 49 -5l-41 -54q-28 6 -67 6q-52 0 -84 -79q-16 -41 -22.5 -75t-9 -48t-6.5 -43t-8.5 -56.5t-15.5 -93t-18 -109.5l3 -1q85 156 197 225q18 -29 24.5 -63
t6.5 -99.5t-26 -148.5t-72.5 -144.5t-96.5 -61.5q-35 0 -64 28q-12 -42 -23 -91.5t-18 -71t-20 -38.5l3 -5q2 1 77 48zM133 54q69 0 95 59t26 219q0 74 -9 97q-32 -13 -85.5 -81t-70 -141.5t-19.5 -136.5q8 -6 30 -11t33 -5z" />
    <glyph glyph-name="ydieresis" unicode="&#xff;" horiz-adv-x="420" 
d="M101 99v-23l4 -10q49 47 106.5 140t101.5 208q1 2 8 19t9 21.5t9 17.5t13 19q16 18 31 23q-2 -15 -6.5 -35.5t-10 -49.5t-14 -84.5t-19 -141.5t-16.5 -128q-19 -139 -82.5 -214.5t-172.5 -75.5q-41 0 -77 9l39 61q43 -13 81 -13q71 0 101 28.5t42 121.5q19 156 46 321
l-3 2q-57 -115 -120.5 -206.5t-117.5 -117.5q-10 34 -10 86t3 81.5t13 102.5l25 188l-65 -47l2 11q7 10 19.5 25.5t47.5 43.5t66 33q-53 -275 -53 -416zM135 690l54 50q33 -26 48 -52l-51 -55q-37 45 -51 57zM324 690l54 50q28 -18 47 -52l-45 -55q-30 38 -56 57z" />
    <glyph glyph-name="hbar" unicode="&#x127;" horiz-adv-x="455" 
d="M339 851q29 0 49 -5l-41 -54q-28 6 -63 6q-80 0 -111 -132q51 4 78.5 4t105.5 -3l-49 -45q-20 1 -59 1t-84 -3q-11 -73 -11 -90l-45 -342q157 282 250 326q17 -13 17 -84t-34 -211t-38 -165l2 -2q87 63 210 234l10 -7q-72 -105 -145 -186.5t-122 -102.5q-2 24 -2 38
q0 63 23 193.5t23 201.5q-63 -56 -133.5 -173.5t-115.5 -259.5q-23 26 -23 64q0 7 2 19l73 533q0 2 0.5 4t0.5 4q-33 -4 -94 -14l46 52q51 7 61 8q28 76 90 133.5t129 57.5z" />
    <glyph glyph-name="Itilde" unicode="&#x128;" horiz-adv-x="468" 
d="M317 -1l-209 1l-4 8q87 18 115 169q24 132 46 271.5t32.5 182.5t22.5 63h-67q-100 0 -140.5 -54.5t-40.5 -187.5l-69 -54q0 114 41 195t140 138q35 20 145 20h90l1 -3q-38 -24 -49 -88q-7 -41 -21 -134q-24 -152 -57 -340q-14 -62 -76 -121l4 -8q24 -1 57.5 -1t73 5.5
t78.5 32.5l4 -8q-102 -86 -117 -87zM339.5 847.5q-38.5 18.5 -60.5 18.5t-52.5 -13.5t-47.5 -28.5l-5 15q49 50 115 76q22 0 60.5 -17.5t61 -17.5t54 10.5t46.5 21.5l8 -11q-56 -57 -119 -72q-22 0 -60.5 18.5z" />
    <glyph glyph-name="itilde" unicode="&#x129;" horiz-adv-x="237" 
d="M47 -10q-2 24 -2 57t8 90.5t26 155t28 160.5l-70 -51l2 11q7 10 19.5 25.5t47.5 43.5t66 33q-7 -43 -20 -151q-27 -227 -60 -309l2 -3q86 61 210 234l11 -7q-72 -105 -145 -186.5t-123 -102.5zM145.5 672.5q-38.5 18.5 -60.5 18.5t-52.5 -13.5t-47.5 -28.5l-5 15
q49 50 115 76q22 0 60.5 -17.5t61 -17.5t54 10.5t46.5 21.5l8 -11q-56 -57 -119 -72q-22 0 -60.5 18.5z" />
    <glyph glyph-name="dotlessi" unicode="&#x131;" horiz-adv-x="225" 
d="M31 -10q-2 24 -2 57t8 90.5t26 155t28 160.5l-70 -51l2 11q7 10 19.5 25.5t47.5 43.5t66 33q-7 -43 -20 -151q-27 -227 -60 -309l2 -3q86 61 210 234l11 -7q-72 -105 -145 -186.5t-123 -102.5z" />
    <glyph glyph-name="IJ" unicode="&#x132;" horiz-adv-x="810" 
d="M694 751h90l1 -3q-15 -9 -29 -32t-19 -56q-45 -304 -111 -649q-11 -55 -77 -124.5t-138 -88.5q-59 0 -145 66q-21 15 -22 16l58 39q21 -20 34 -30.5t39.5 -23.5t51.5 -13q53 0 90.5 42t52.5 147t32 216q31 192 65 386q6 33 21 51h-69q-80 0 -110.5 -28.5t-30.5 -103.5
l-69 -54q0 83 31.5 133.5t109.5 89.5q41 20 144 20zM259 -1l-159 1l-4 8q87 18 115 169q24 132 46 271.5t32.5 182.5t22.5 63h-67q-100 0 -140.5 -54.5t-40.5 -187.5l-69 -54q0 114 41 195t140 138q35 20 145 20h90l1 -3q-38 -24 -49 -88q-2 -11 -31.5 -192t-46.5 -282
q-5 -31 -22 -58.5t-54 -62.5l4 -8q14 -1 40 -1q77 0 119 38l4 -8q-1 -1 -31 -28q-64 -57 -86 -59z" />
    <glyph glyph-name="ij" unicode="&#x133;" horiz-adv-x="420" 
d="M71 -216q-29 0 -49 5l41 64q28 -6 56 -6t45 6.5t29 15.5t22 28t15.5 33.5t11 43.5t8 47t7.5 55t8 57l18 123q-70 -98 -138 -172t-114 -94q-2 24 -2 57t8 90.5t26 155t28 160.5l-70 -51l2 11q7 10 19.5 25.5t47.5 43.5t66 33q-6 -39 -21 -151q-30 -228 -59 -309l2 -3
q85 60 209 233l25 168l-70 -51l2 11q7 10 19.5 25.5t47.5 43.5t66 33l-47 -349q-25 -186 -95.5 -284t-163.5 -98zM405 732q1 -8 1 -37q0 -66 -66 -100q10 27 12 89zM178 735q1 -8 1 -37q0 -66 -66 -100q10 27 12 89z" />
    <glyph glyph-name="Jcircumflex" unicode="&#x134;" horiz-adv-x="534" 
d="M378 751h90l1 -3q-15 -9 -29 -32t-19 -56q-45 -304 -111 -649q-11 -55 -77 -124.5t-138 -88.5q-59 0 -145 66q-21 15 -22 16l58 39q21 -20 34 -30.5t39.5 -23.5t51.5 -13q53 0 90.5 42t52.5 147t32 216q31 192 65 386q6 33 21 51h-69q-100 0 -140.5 -54.5t-40.5 -187.5
l-69 -54q0 114 41 195t140 138q35 20 144 20zM426 912q23 -9 60.5 -36t55.5 -46l-35 -33q-64 62 -109 76q-46 -23 -106 -74l-10 9q40 44 72.5 69.5t71.5 34.5z" />
    <glyph glyph-name="jcircumflex" unicode="&#x135;" horiz-adv-x="195" 
d="M-154 -216q-29 0 -49 5l41 64q28 -6 56 -6t45 6.5t29 15.5t22 28t15.5 33.5t11 43.5t8 47t7.5 55t8 57l47 320l-70 -51l2 11q7 10 19.5 25.5t47.5 43.5t66 33l-47 -349q-25 -186 -95.5 -284t-163.5 -98zM166 765q23 -9 60.5 -36t55.5 -46l-35 -33q-64 62 -109 76
q-46 -23 -106 -74l-10 9q40 44 72.5 69.5t71.5 34.5z" />
    <glyph glyph-name="kcommaaccent" unicode="&#x137;" horiz-adv-x="438" 
d="M159 562l-28 -225q38 77 95 127t117 50q48 0 48 -50q0 -109 -148 -185q14 -34 38 -115.5t30 -111.5q38 21 106.5 92.5t118.5 141.5l10 -7q-72 -105 -145 -186.5t-122 -102.5q-24 41 -66.5 144t-54.5 129q78 32 127.5 77.5t49.5 96.5q0 37 -30 37q-35 0 -63 -26t-57.5 -77
t-46.5 -100t-26 -87t-22.5 -100.5t-21.5 -92.5q-35 23 -35 67q0 10 1 15l73 533q12 86 82.5 165.5t150.5 79.5q29 0 49 -5l-41 -54q-28 6 -59.5 6t-53 -16.5t-34 -38.5t-21.5 -58q-21 -84 -21 -123zM83 -268q38 49 38 81t-47 86q33 38 70 63q36 -48 51 -78q-2 -16 -27.5 -65
t-66.5 -102z" />
    <glyph glyph-name="kgreenlandic" unicode="&#x138;" horiz-adv-x="460" 
d="M58 -10q-30 16 -30 57.5t8 96t25.5 148t28.5 161.5l-70 -51l2 11q7 10 19.5 25.5t47.5 43.5t66 33q-52 -365 -89 -493zM335 515q48 0 48 -50q0 -109 -148 -185q14 -34 38 -115.5t30 -111.5q38 21 106.5 92.5t118.5 141.5l10 -7q-72 -105 -145 -186.5t-122 -102.5
q-24 41 -66.5 144t-54.5 129q78 32 127.5 77.5t49.5 96.5q0 37 -34 37q-12 0 -51 -28l-9 11q60 57 102 57z" />
    <glyph glyph-name="Ldotaccent" unicode="&#x13f;" horiz-adv-x="522" 
d="M369 752q55 0 100 -35l-59 -50q-61 46 -107 46q-75 0 -96 -124q-16 -91 -37 -232t-27 -171q-12 -60 -76 -121l4 -8q86 0 182 -69q40 -28 79 -57q94 -69 175 -69q51 0 85 54l12 -3q-13 -47 -60.5 -77.5t-94 -30.5t-90.5 21t-86 50.5t-85 59.5q-102 72 -169 72
q-29 0 -61 -8l-4 8q87 18 115 169q27 140 41.5 248t18.5 135q12 74 85.5 133t154.5 59zM300 309l68 74q30 -20 59 -67l-66 -67q-8 12 -61 60z" />
    <glyph glyph-name="ldot" unicode="&#x140;" horiz-adv-x="396" 
d="M346 851q29 0 49 -5l-41 -54q-28 6 -59 6t-52 -15t-33 -35t-21.5 -54t-13 -56.5t-8 -60t-9 -64t-17.5 -137.5q-28 -239 -62 -322l3 -2q31 23 108 101l9 -12q-96 -121 -164 -151q-2 24 -2 56t13.5 131t36 237t30.5 192q12 85 82 165t151 80zM241 309l67 73q23 -16 58 -66
l-65 -66q-8 14 -60 59z" />
    <glyph glyph-name="Lslash" unicode="&#x141;" horiz-adv-x="448" 
d="M360 752q55 0 100 -35l-59 -50q-61 46 -107 46q-75 0 -96 -124l-20 -119q78 44 137 69l-25 -60q-62 -29 -120 -63q-6 -37 -14 -92q-16 -112 -22 -138q-12 -60 -76 -121l4 -8q84 0 180 -69q40 -28 80 -57q95 -69 176 -69q51 0 85 54l12 -3q-13 -47 -60.5 -77.5
t-93.5 -30.5t-90.5 21t-86.5 50.5t-84 59.5q-101 72 -170 72q-29 0 -61 -8l-4 8q87 18 115 169q17 94 32 189q-75 -50 -99 -67l23 67q20 14 84 55q2 13 9 64t11 75q12 74 85.5 133t154.5 59z" />
    <glyph glyph-name="lslash" unicode="&#x142;" horiz-adv-x="261" 
d="M30 -10q-1 11 -1 36.5t3 57t6.5 54.5t10.5 62.5t10 60.5l10 66q-23 -19 -63 -47l14 61l56 39l32 226q12 91 82 168t151 77q29 0 49 -5l-41 -54q-28 6 -59 6t-52 -15t-33 -35t-21.5 -54t-13 -56.5t-8 -60t-8.5 -62t-14 -100.5q58 39 113 62l-17 -56q-49 -23 -102 -58
q-28 -229 -60 -309l3 -2q87 63 258 264l10 -6q-218 -279 -315 -320z" />
    <glyph glyph-name="Nacute" unicode="&#x143;" horiz-adv-x="784" 
d="M252 750h94q126 -363 184 -648q14 73 36 221.5t39.5 241t37.5 129.5q-21 1 -59.5 1t-86.5 -7l-1 2q31 37 70 49t122 12h54l1 -3q-38 -24 -49 -88l-76 -442q-17 -99 -45.5 -150.5t-86.5 -77.5l-4 8l27 15q-48 147 -116 337t-103 293q-17 -72 -34 -212t-28 -203
q-21 -115 -77.5 -171.5t-137.5 -56.5h-6l-54 1l47 64q36 -9 68.5 -9t47.5 16t25 66q25 129 44 264.5t29 201.5t22 90l-65 1h-3q-95 0 -135.5 -55.5t-40.5 -187.5l-69 -54q0 114 41 195t140 138q33 19 148 19zM626 947h8l-15 -39q-29 -6 -74 -34.5t-113 -107.5l-14 17
q45 63 72 94q59 70 136 70z" />
    <glyph glyph-name="nacute" unicode="&#x144;" horiz-adv-x="455" 
d="M338 757l50 -22q-86 -60 -136 -165l-32 10q46 148 118 177zM372 514q17 -14 17 -79t-35 -218.5t-37 -162.5l3 -2q89 64 210 234l10 -7q-69 -102 -142.5 -185t-124.5 -104q-2 24 -2 38q0 64 22.5 193t22.5 197l-4 2q-60 -54 -130 -171.5t-115 -258.5q-23 26 -23 64
q0 32 42 304l14 90l-3 2l-66 -48l2 11q7 10 19.5 25.5t47.5 43.5t66 33q-7 -42 -21 -155.5t-24 -167.5l3 -2q59 115 125.5 206.5t122.5 117.5z" />
    <glyph glyph-name="OE" unicode="&#x152;" horiz-adv-x="797" 
d="M594 381l-134 2q-23 -146 -34 -201.5t-75 -116.5l5 -11h226q91 0 146 40l4 -8q-81 -62 -117 -87h-342q-66 0 -114.5 20.5t-74.5 56.5q-51 69 -51 161q0 119 52 236t152 197.5t221 80.5h193q119 0 152 1l-56 -59l-232 1q-7 -19 -10 -34l-34 -215h18l114 -4q52 0 97 10
l5 -4q-18 -26 -47.5 -46t-63.5 -20zM454 695q-28 3 -58 3t-56 -1q-102 -31 -170.5 -150.5t-68.5 -249.5q0 -133 79 -203q43 -39 105 -39q53 37 68 122q21 112 40.5 245.5t31 188.5t29.5 84z" />
    <glyph glyph-name="oe" unicode="&#x153;" horiz-adv-x="533" 
d="M480 514q51 0 51 -40q0 -97 -221 -244q-2 -11 -2 -34q0 -94 69 -157q98 75 222 248l10 -7q-72 -105 -145 -186.5t-122 -102.5q-37 8 -60 42t-33 81q-73 -98 -162 -123q-38 17 -60 74t-22 113q0 108 71.5 207.5t166.5 126.5q49 -25 74 -123q34 56 80.5 90.5t82.5 34.5z
M71 227q0 -39 2 -63q5 -68 41 -133q145 62 145 245q0 39 -2 64q-5 67 -41 132q-77 -35 -111 -95.5t-34 -149.5zM446 465q-99 0 -130 -211q61 41 109 97.5t48 92.5q0 21 -27 21z" />
    <glyph glyph-name="Racute" unicode="&#x154;" horiz-adv-x="567" 
d="M133.5 722.5q83.5 31.5 192.5 31.5t167.5 -39t58.5 -108t-56 -130.5t-147 -82.5q52 -108 133.5 -243t151.5 -229l-35 -35q-198 215 -355 496l33 35h39q76 0 118.5 40.5t42.5 99.5t-48.5 103t-136.5 44h-19q-11 -23 -16.5 -54.5t-20.5 -124.5q-23 -152 -56 -340
q-10 -58 -76 -121l4 -8h61q72 0 127 37l4 -8q-33 -27 -45 -37.5t-23 -19.5t-17 -13t-13 -8q-13 -9 -19 -9q-122 0 -188 1l-4 8q87 18 115 169q27 148 48 280t33.5 177.5t29.5 67.5q-112 0 -184.5 -74.5t-72.5 -223.5l-65 -56q0 174 103 287q52 56 135.5 87.5zM503 954h8
l-15 -39q-29 -6 -74 -34.5t-113 -107.5l-14 17q45 63 71 94q60 70 137 70z" />
    <glyph glyph-name="Rcommaaccent" unicode="&#x156;" horiz-adv-x="599" 
d="M133.5 722.5q83.5 31.5 192.5 31.5t167.5 -39t58.5 -108t-56 -130.5t-147 -82.5q52 -108 133.5 -243t151.5 -229l-35 -35q-198 215 -355 496l33 35h39q76 0 118.5 40.5t42.5 99.5t-48.5 103t-136.5 44h-19q-11 -23 -16.5 -54.5t-20.5 -124.5q-23 -152 -56 -340
q-10 -58 -76 -121l4 -8h61q72 0 127 37l4 -8q-33 -27 -45 -37.5t-23 -19.5t-17 -13t-13 -8q-13 -9 -19 -9q-122 0 -188 1l-4 8q87 18 115 169q27 148 48 280t33.5 177.5t29.5 67.5q-112 0 -184.5 -74.5t-72.5 -223.5l-65 -56q0 174 103 287q52 56 135.5 87.5zM204 -269
q38 49 38 81t-47 86q33 38 70 63q36 -48 51 -78q-2 -16 -27.5 -65t-66.5 -102z" />
    <glyph glyph-name="rcommaaccent" unicode="&#x157;" horiz-adv-x="312" 
d="M340 515q21 0 35 -10l-33 -56q-11 10 -35 10q-47 0 -109 -111t-114 -311l-55 -47q-2 24 -2 57t8 90.5t26 155t28 160.5l-70 -51l2 11q7 10 19.5 25.5t47.5 43.5t66 33q-7 -43 -19.5 -137.5t-19.5 -139.5h7q53 136 105.5 206.5t112.5 70.5zM-19 -268q38 49 38 81t-47 86
q33 38 70 63q36 -48 51 -78q-2 -16 -27.5 -65t-66.5 -102z" />
    <glyph glyph-name="Rcaron" unicode="&#x158;" horiz-adv-x="567" 
d="M133.5 722.5q83.5 31.5 192.5 31.5t167.5 -39t58.5 -108t-56 -130.5t-147 -82.5q52 -108 133.5 -243t151.5 -229l-35 -35q-198 215 -355 496l33 35h39q76 0 118.5 40.5t42.5 99.5t-48.5 103t-136.5 44h-19q-11 -23 -16.5 -54.5t-20.5 -124.5q-23 -152 -56 -340
q-10 -58 -76 -121l4 -8h61q72 0 127 37l4 -8q-33 -27 -45 -37.5t-23 -19.5t-17 -13t-13 -8q-13 -9 -19 -9q-122 0 -188 1l-4 8q87 18 115 169q27 148 48 280t33.5 177.5t29.5 67.5q-112 0 -184.5 -74.5t-72.5 -223.5l-65 -56q0 174 103 287q52 56 135.5 87.5zM221 930l45 21
q63 -66 113 -82q46 23 126 91l10 -9q-96 -105 -164 -121q-26 11 -63.5 39t-66.5 61z" />
    <glyph glyph-name="rcaron" unicode="&#x159;" horiz-adv-x="297" 
d="M317 515q21 0 35 -10l-33 -56q-11 10 -35 10q-47 0 -109 -111t-114 -311l-55 -47q-2 24 -2 57t8 90.5t26 155t28 160.5l-70 -51l2 11q7 10 19.5 25.5t47.5 43.5t66 33q-7 -43 -19.5 -137.5t-19.5 -139.5h7q53 136 105.5 206.5t112.5 70.5zM61 735l45 21q63 -66 113 -82
q46 23 126 91l10 -9q-96 -105 -164 -121q-26 11 -63.5 39t-66.5 61z" />
    <glyph glyph-name="Scaron" unicode="&#x160;" horiz-adv-x="483" 
d="M180 936l45 21q63 -66 113 -82q46 23 126 91l10 -9q-96 -105 -164 -121q-26 11 -63.5 39t-66.5 61zM173 707q68 53 151.5 53t153.5 -26l-57 -66q-66 30 -134 30q-127 0 -127 -57q0 -37 32.5 -88.5t71.5 -96t71.5 -98t32.5 -92.5q0 -111 -72 -192.5t-169.5 -81.5
t-156.5 46l57 64q84 -53 151 -53q48 0 88.5 43t40.5 88.5t-31.5 101t-69.5 100t-69.5 98.5t-31.5 96q0 78 68 131z" />
    <glyph glyph-name="scaron" unicode="&#x161;" horiz-adv-x="298" 
d="M104 479q44 35 97 35t82 -27l-47 -55q-12 42 -70 42q-32 0 -52 -18.5t-20 -43.5q0 -24 6 -36.5t9 -18.5t10.5 -16.5t11 -14t13.5 -15t30 -35.5q56 -63 56 -119t-66.5 -110.5t-124 -54.5t-81.5 27l50 46q35 -31 84 -31q30 0 59.5 25.5t29.5 54.5q0 51 -77 135
q-23 25 -35 39t-25.5 39t-13.5 44q0 50 74 108zM62 716l45 21q63 -66 113 -82q46 23 126 91l10 -9q-96 -105 -164 -121q-26 11 -63.5 39t-66.5 61z" />
    <glyph glyph-name="Ydieresis" unicode="&#x178;" horiz-adv-x="607" 
d="M257 862l54 50q33 -26 48 -52l-51 -55q-37 45 -51 57zM446 862l54 50q28 -18 47 -52l-45 -55q-30 38 -56 57zM160 757q33 0 61.5 -35.5t55.5 -123.5t38 -134q31 -126 51 -228q136 237 177.5 318.5t41.5 99t-18.5 24t-73.5 6.5l-1 4l75 45h39q55 0 55 -40q0 -45 -152 -313
q-65 -114 -67 -118q-121 -227 -190 -313t-170 -132q-75 10 -167 82l58 42q65 -60 127 -60q48 0 94.5 59.5t127.5 213.5q-7 25 -30 117t-36.5 142.5t-34.5 122.5q-41 140 -75 182q-67 0 -99 -50.5t-32 -159.5l-69 -54q0 118 63 210.5t151 92.5z" />
    <glyph glyph-name="Zdotaccent" unicode="&#x17b;" horiz-adv-x="537" 
d="M170 735q46 24 102 24t123 -20.5t104 -20.5q63 0 145 37l7 -7q-97 -88 -279 -344q-65 -92 -141.5 -181t-132.5 -125l4 -8q54 0 113 -27.5t102 -60t101 -60t109.5 -27.5t85.5 54l12 -3q-13 -47 -60.5 -77.5t-97.5 -30.5t-108.5 30t-106.5 66.5t-107.5 66.5t-96.5 30
t-69 -8l-4 8q133 141 207 221.5t166.5 192t153.5 201.5q-26 -3 -46 -3q-55 0 -125 25.5t-105 25.5t-56 -6q-50 -46 -50 -169l-69 -54q0 106 48 185q25 41 71 65zM377 899l66 62q21 -17 61 -74l-64 -57q-51 59 -63 69z" />
    <glyph glyph-name="zdotaccent" unicode="&#x17c;" horiz-adv-x="336" 
d="M139 506q12 0 53 -4.5t66 -4.5q61 0 72 17l6 -3q-130 -176 -307 -438q-6 -10 -18 -22l3 -3q18 8 59 8t92 -8t77.5 -8t65.5 25l5 -6q-48 -37 -58 -50t-17 -16t-27.5 -3t-81.5 9t-98.5 9t-78.5 -17l-10 9q153 213 300 430q3 4 3 8q0 6 -29.5 10t-48.5 4q-79 0 -159 -51
l-6 10q24 34 62.5 64.5t74.5 30.5zM142 709l66 62q21 -17 61 -74l-64 -57q-51 59 -63 69z" />
    <glyph glyph-name="Zcaron" unicode="&#x17d;" horiz-adv-x="515" 
d="M148 735q46 24 102 24t123 -20.5t104 -20.5q63 0 145 37l7 -7q-97 -88 -279 -344q-65 -92 -141.5 -181t-132.5 -125l4 -8q54 0 113 -27.5t102 -60t101 -60t109.5 -27.5t85.5 54l12 -3q-13 -47 -60.5 -77.5t-97.5 -30.5t-108.5 30t-106.5 66.5t-107.5 66.5t-96.5 30
t-69 -8l-4 8q133 141 207 221.5t166.5 192t153.5 201.5q-25 -3 -46 -3q-55 0 -125 25.5t-105 25.5t-56 -6q-50 -46 -50 -169l-69 -54q0 106 48 185q25 41 71 65zM292 928l45 21q63 -66 113 -82q46 23 126 91l10 -9q-96 -105 -164 -121q-26 11 -63.5 39t-66.5 61z" />
    <glyph glyph-name="zcaron" unicode="&#x17e;" horiz-adv-x="324" 
d="M139 506q12 0 53 -4.5t66 -4.5q61 0 72 17l6 -3q-130 -176 -307 -438q-6 -10 -18 -22l3 -3q18 8 59 8t92 -8t77.5 -8t65.5 25l5 -6q-48 -37 -58 -50t-17 -16t-27.5 -3t-81.5 9t-98.5 9t-78.5 -17l-10 9q153 213 300 430q3 4 3 8q0 6 -29.5 10t-48.5 4q-79 0 -159 -51
l-6 10q24 34 62.5 64.5t74.5 30.5zM126 724l45 21q63 -66 113 -82q46 23 126 91l10 -9q-96 -105 -164 -121q-26 11 -63.5 39t-66.5 61z" />
    <glyph glyph-name="florin" unicode="&#x192;" horiz-adv-x="377" 
d="M362 691q42 0 69 -15l-41 -54q-36 16 -83.5 16t-67.5 -47.5t-36 -178.5h174l-26 -36q-56 -12 -155 -16q-16 -123 -28 -205q-22 -144 -83 -217t-156 -73q-20 0 -44 6l38 55q30 -8 61 -8q91 0 115 154l43 289h-29q-40 0 -108 -2l21 40q36 9 124 12q16 137 71 208.5
t141 71.5z" />
    <glyph glyph-name="dotlessj" unicode="&#x237;" horiz-adv-x="199" 
d="M-154 -216q-29 0 -49 5l41 64q28 -6 56 -6t45 6.5t29 15.5t22 28t15.5 33.5t11 43.5t8 47t7.5 55t8 57l47 320l-70 -51l2 11q7 10 19.5 25.5t47.5 43.5t66 33l-47 -349q-25 -186 -95.5 -284t-163.5 -98z" />
    <glyph glyph-name="circumflex" unicode="&#x2c6;" 
d="M190 765q23 -9 60.5 -36t55.5 -46l-35 -33q-64 62 -109 76q-46 -23 -106 -74l-10 9q40 44 72.5 69.5t71.5 34.5z" />
    <glyph glyph-name="caron" unicode="&#x2c7;" horiz-adv-x="382" 
d="M99 756q63 -66 113 -82q46 23 126 91l10 -9q-96 -105 -164 -121q-26 11 -63.5 39t-66.5 61z" />
    <glyph glyph-name="breve" unicode="&#x2d8;" 
d="M165 789q-61 0 -107 31l43 44q49 -28 100.5 -28t90.5 27l7 -8q-44 -66 -134 -66z" />
    <glyph glyph-name="dotaccent" unicode="&#x2d9;" horiz-adv-x="375" 
d="M179 836q26 -20 64 -77l-67 -60q-5 5 -17 19q-32 38 -49 53z" />
    <glyph glyph-name="ring" unicode="&#x2da;" horiz-adv-x="344" 
d="M226.5 824q19.5 -16 19.5 -44t-22 -55t-52 -27t-48.5 16t-18.5 41.5t18.5 49t45.5 35.5q38 0 57.5 -16zM189 730q35 11 35 34t-17.5 36t-42.5 13q-26 -14 -32 -46q0 -12 18 -24.5t39 -12.5z" />
    <glyph glyph-name="ogonek" unicode="&#x2db;" horiz-adv-x="375" 
d="M133 -148q0 -36 33 -36q30 0 106 50l10 -17q-51 -42 -121 -73q-41 0 -62.5 18.5t-21.5 56.5t32.5 75t117.5 98l17 -14q-111 -94 -111 -158z" />
    <glyph glyph-name="tilde" unicode="&#x2dc;" horiz-adv-x="414" 
d="M198.5 630.5q-38.5 18.5 -60.5 18.5t-52.5 -13.5t-47.5 -28.5l-5 15q49 50 115 76q22 0 60.5 -17.5t61 -17.5t54 10.5t46.5 21.5l8 -11q-56 -57 -119 -72q-22 0 -60.5 18.5z" />
    <glyph glyph-name="hungarumlaut" unicode="&#x2dd;" horiz-adv-x="531" 
d="M265 758h8l-15 -39q-9 0 -63.5 -27.5t-126.5 -110.5l-11 13q45 63 71 94q60 70 137 70zM472 758h8l-15 -39q-9 0 -63.5 -27.5t-126.5 -110.5l-11 13q45 63 72 94q59 70 136 70z" />
    <glyph glyph-name="dotaccentcmb" unicode="&#x307;" horiz-adv-x="320" 
d="M188 836q26 -20 64 -77l-67 -60q-5 5 -17 19q-32 38 -49 53z" />
    <glyph glyph-name="Delta" unicode="&#x394;" horiz-adv-x="643" 
d="M431 726l63 28q1 -99 28.5 -320.5t55.5 -389.5l-93 -65l-465 1q383 706 411 746zM439 674q-2 0 -169.5 -307t-183.5 -340q26 0 69.5 1t134.5 2q213 4 213 6z" />
    <glyph glyph-name="Delta" unicode="&#x2206;" horiz-adv-x="643" 
d="M431 726l63 28q1 -99 28.5 -320.5t55.5 -389.5l-93 -65l-465 1q383 706 411 746zM439 674q-2 0 -169.5 -307t-183.5 -340q26 0 69.5 1t134.5 2q213 4 213 6z" />
    <glyph glyph-name="Omega" unicode="&#x3a9;" horiz-adv-x="814" 
d="M524 759q124 0 202 -87.5t78 -218.5t-71.5 -231t-180.5 -167h187l-38 -55h-193l-5 19q163 203 200 346q17 66 17 136q0 112 -50.5 170t-150.5 58q-131 0 -209.5 -112t-78.5 -260.5t98 -337.5l-11 -19h-229l45 55h156q-72 54 -112.5 116.5t-40.5 168.5t53 205t142 156.5
t192 57.5z" />
    <glyph glyph-name="Omega" unicode="&#x2126;" horiz-adv-x="814" 
d="M524 759q124 0 202 -87.5t78 -218.5t-71.5 -231t-180.5 -167h187l-38 -55h-193l-5 19q163 203 200 346q17 66 17 136q0 112 -50.5 170t-150.5 58q-131 0 -209.5 -112t-78.5 -260.5t98 -337.5l-11 -19h-229l45 55h156q-72 54 -112.5 116.5t-40.5 168.5t53 205t142 156.5
t192 57.5z" />
    <glyph glyph-name="pi" unicode="&#x3c0;" horiz-adv-x="567" 
d="M469 444l-176 7q-22 -143 -51 -273l-10 -48q-14 -64 -42 -103.5t-53 -39.5q-47 0 -72 51l12 11q5 -1 15 -1q38 0 66 33.5t42.5 87.5t23 106.5t15 106.5t10.5 71q-63 0 -94.5 -16.5t-65.5 -77.5l-8 10q20 63 74.5 104t104.5 41q71 0 147 -8t101 -8q58 0 96 35l8 -9
q-25 -46 -50 -63.5t-60 -17.5q-20 -32 -37.5 -139.5t-17.5 -168t7 -75.5q55 36 99 94l11 -17q-30 -44 -67.5 -76.5t-107.5 -82.5q-8 21 -8 101t21 191.5t67 173.5z" />
    <glyph glyph-name="endash" unicode="&#x2013;" horiz-adv-x="524" 
d="M89 329h377l-33 -54h-398z" />
    <glyph glyph-name="emdash" unicode="&#x2014;" horiz-adv-x="718" 
d="M103 332h589l-54 -54h-589z" />
    <glyph glyph-name="quoteleft" unicode="&#x2018;" horiz-adv-x="222" 
d="M192 675q-52 -65 -60 -67q-21 17 -41 44t-26 39q2 16 27.5 65.5t70.5 109.5l15 -11q-53 -79 -53 -97q6 -10 33.5 -38.5t33.5 -44.5z" />
    <glyph glyph-name="quoteright" unicode="&#x2019;" horiz-adv-x="236" 
d="M80 799q52 65 60 67q21 -17 41 -44t26 -39q-2 -16 -27.5 -65.5t-70.5 -109.5l-15 11q53 79 53 97q-6 10 -33.5 38.5t-33.5 44.5z" />
    <glyph glyph-name="quotesinglbase" unicode="&#x201a;" horiz-adv-x="327" 
d="M100 83q52 65 60 67q21 -17 41 -44t26 -39q-2 -16 -27.5 -65.5t-70.5 -109.5l-15 11q53 79 53 97q-6 10 -33.5 38.5t-33.5 44.5z" />
    <glyph glyph-name="quotedblleft" unicode="&#x201c;" horiz-adv-x="435" 
d="M413 675q-52 -65 -60 -67q-21 17 -41 44t-26 39q2 16 27.5 65.5t70.5 109.5l15 -11q-53 -79 -53 -97q6 -10 33.5 -38.5t33.5 -44.5zM192 675q-52 -65 -60 -67q-21 17 -41 44t-26 39q2 16 27.5 65.5t70.5 109.5l15 -11q-53 -79 -53 -97q6 -10 33.5 -38.5t33.5 -44.5z" />
    <glyph glyph-name="quotedblright" unicode="&#x201d;" horiz-adv-x="486" 
d="M67 799q52 65 60 67q21 -17 41 -44t26 -39q-2 -16 -27.5 -65.5t-70.5 -109.5l-15 11q53 79 53 97q-6 10 -33.5 38.5t-33.5 44.5zM288 799q52 65 60 67q21 -17 41 -44t26 -39q-2 -16 -27.5 -65.5t-70.5 -109.5l-15 11q53 79 53 97q-6 10 -33.5 38.5t-33.5 44.5z" />
    <glyph glyph-name="quotedblbase" unicode="&#x201e;" horiz-adv-x="533" 
d="M95 83q52 65 60 67q21 -17 41 -44t26 -39q-2 -16 -27.5 -65.5t-70.5 -109.5l-15 11q53 79 53 97q-6 10 -33.5 38.5t-33.5 44.5zM316 83q52 65 60 67q21 -17 41 -44t26 -39q-2 -16 -27.5 -65.5t-70.5 -109.5l-15 11q53 79 53 97q-6 10 -33.5 38.5t-33.5 44.5z" />
    <glyph glyph-name="dagger" unicode="&#x2020;" horiz-adv-x="528" 
d="M328 755q-14 -144 -31 -260h140l-26 -40q-54 -10 -121 -13q-34 -235 -91 -522l-51 -23q49 265 80 545l-137 1l40 50h102q11 102 18 198z" />
    <glyph glyph-name="daggerdbl" unicode="&#x2021;" horiz-adv-x="506" 
d="M339 755q-14 -144 -31 -260h118l-22 -38q-49 -15 -103 -15q-8 -62 -25 -162h133l-23 -40q-56 -13 -118 -13q-20 -121 -54 -295l-52 -34q32 171 53 329q-30 0 -68 0.5t-52 0.5l40 50h87q8 56 20 164q-27 0 -70.5 0.5t-59.5 0.5l40 50h95q9 88 20 212z" />
    <glyph glyph-name="bullet" unicode="&#x2022;" horiz-adv-x="522" 
d="M366.5 407.5q33.5 -35.5 33.5 -89.5q0 -75 -47.5 -117t-102 -42t-88 35t-33.5 88q0 71 45 116q47 45 103 45t89.5 -35.5z" />
    <glyph glyph-name="ellipsis" unicode="&#x2026;" horiz-adv-x="728" 
d="M61 65l72 69q31 -24 67 -81l-70 -64q-1 1 -26.5 31t-42.5 45zM284 65l72 69q31 -24 67 -81l-70 -64q-1 1 -26.5 31t-42.5 45zM504 65l72 69q31 -24 67 -81l-70 -64q-1 1 -26.5 31t-42.5 45z" />
    <glyph glyph-name="perthousand" unicode="&#x2030;" horiz-adv-x="973" 
d="M785 348q63 0 92 -40t29 -108t-61.5 -129t-134.5 -61q-30 0 -55 18.5t-37 53.5q-28 -33 -67 -52.5t-79.5 -19.5t-70 35.5t-29.5 86.5t19.5 97t61.5 82.5t95 36.5q82 0 109 -72q51 72 128 72zM120 744.5q42 36.5 100 36.5t87 -40t29 -108t-61.5 -129t-134.5 -61
q-42 0 -71.5 35.5t-29.5 86.5t19.5 97t61.5 82.5zM639 818l49 -50q-78 -129 -267.5 -365.5t-339.5 -396.5l-19 21q15 20 159 204t237.5 315t180.5 272zM591 284q-20 35 -63.5 35t-74 -47.5t-30.5 -108.5q0 -111 74 -111q114 0 114 158q0 39 -20 74zM258 717q-20 35 -63.5 35
t-74 -47.5t-30.5 -108.5q0 -111 74 -111q114 0 114 158q0 39 -20 74zM828 284q-20 35 -63.5 35t-74 -47.5t-30.5 -108.5q0 -111 74 -111q114 0 114 158q0 39 -20 74z" />
    <glyph glyph-name="guilsinglleft" unicode="&#x2039;" horiz-adv-x="491" 
d="M305 483l42 -49q-27 -32 -82 -80t-101 -76q45 -26 98 -68.5t81 -71.5l-38 -58q-75 105 -211 198q138 98 211 205z" />
    <glyph glyph-name="guilsinglright" unicode="&#x203a;" horiz-adv-x="435" 
d="M146 480l5 -1q74 -107 209 -201q-70 -47 -125 -101t-86 -97l-39 58q29 29 82 71t99 68h-1q-45 28 -100.5 77t-82.5 80z" />
    <glyph glyph-name="fraction" unicode="&#x2044;" horiz-adv-x="839" 
d="M700 818l49 -50q-78 -129 -267.5 -365.5t-339.5 -396.5l-19 21q15 20 159 204t237.5 315t180.5 272z" />
    <glyph glyph-name="Euro" unicode="&#x20ac;" horiz-adv-x="631" 
d="M510 751q69 0 136 -20l-58 -75q-55 39 -113 52q-84 -1 -158 -88.5t-102 -207.5h201l-26 -36q-64 -14 -184 -16q-4 -25 -4 -49t1 -32h202l-26 -36q-64 -14 -169 -16q14 -64 50.5 -111t94.5 -61q68 12 176 93l9 -8q-36 -45 -95 -90t-108 -58q-69 0 -117 36q-86 66 -86 198
v1q-35 1 -91 1l34 51h59q5 47 13 81q-20 0 -54 0.5t-41 0.5l34 51h74q43 144 135 241.5t213 97.5z" />
    <glyph glyph-name="trademark" unicode="&#x2122;" horiz-adv-x="667" 
d="M409 685l-35 3q-41 0 -52 -40q-5 -20 -5 -52l-37 -26q0 65 31 108t100 43q18 0 44 -4q0 -12 5 -72t5 -80.5t-1 -30.5v-10l4 -1q28 64 66 128t62 71l-3 -49q-11 -162 -11 -181t1 -36q25 15 42 35l11 -13q-30 -31 -86 -64q-3 29 -3 91t8 134l-4 2q-11 -13 -47.5 -95
t-68.5 -135l-4 1q-4 40 -4 144v85l-4 1l-54 -141q-32 -83 -109 -83q-10 0 -15 5l23 33q9 -3 25 -3t28.5 12t30 56t57.5 164zM170 689l-57 3q-50 0 -50 -47v-26l-29 -25l-4 2v46q0 33 36 55.5t104 22.5h129l1 -4l-26 -27h-69q-16 -52 -23 -115t-11 -89.5t-17 -39.5l2 -6
q29 0 46 14l9 -10q-33 -29 -86 -29h-14q-3 0 -10.5 0.5t-9.5 0.5l2 13q19 6 29.5 18.5t13 22t5.5 28.5l22 160q2 20 9 27z" />
    <glyph glyph-name="estimated" unicode="&#x212e;" horiz-adv-x="994" 
d="M912 341h-670q-6 0 -6 -5v-202q0 -16 10 -23q108 -111 253 -111q78 0 147 33t119 90h61q-57 -67 -143.5 -105.5t-184.5 -38.5q-172 0 -292.5 108.5t-120.5 263t120.5 263.5t292 109t293 -109t121.5 -263v-10zM760 367v205q0 12 -10 24q-108 106 -251.5 106t-251.5 -110
q-11 -10 -11 -25v-200q0 -6 6 -6h513q5 0 5 6z" />
    <glyph glyph-name="partialdiff" unicode="&#x2202;" horiz-adv-x="545" 
d="M272 738q86 0 138 -68t52 -188.5t-34.5 -236t-103 -189.5t-156.5 -74q-51 0 -84.5 36.5t-33.5 89.5q0 106 63.5 188t157.5 82q80 0 135 -55q11 66 11 111q0 113 -50.5 178.5t-144.5 65.5q-39 0 -84 -12l-14 29q80 43 148 43zM243 334q-65 0 -99.5 -48.5t-34.5 -109.5
q0 -137 95 -139q65 0 111 58.5t72 149.5q-24 39 -64.5 64t-79.5 25z" />
    <glyph glyph-name="product" unicode="&#x220f;" horiz-adv-x="659" 
d="M288 708h-48l-106 -811h-57l92 814l52 48h373l-117 -862h-53l90 785q-22 12 -94 19t-132 7z" />
    <glyph glyph-name="summation" unicode="&#x2211;" horiz-adv-x="633" 
d="M419 -105l-270 10q-79 0 -141 -8l-8 6q76 93 169 230t128 205q-18 56 -75.5 192t-74 168.5t-16.5 37.5q0 19 50 19l247 -5q72 0 113 3.5t45 3.5q12 0 12 -10v-2l-38 -169h-20q2 16 2 32t-10.5 35.5t-30.5 31t-42 19.5t-53 12q-49 5 -103.5 5t-66.5 -13q8 -24 56 -143.5
t83 -195.5q-3 -5 -112 -170.5t-132 -205.5q70 -1 151.5 -11t123.5 -10t73 25.5t68 102.5l16 -10q-14 -78 -57 -131.5t-87 -53.5z" />
    <glyph glyph-name="minus" unicode="&#x2212;" horiz-adv-x="539" 
d="M343 286l-292 5h-22l54 54q25 1 65 1l262 -4q64 0 98 3l-54 -54q-33 -5 -111 -5z" />
    <glyph glyph-name="radical" unicode="&#x221a;" horiz-adv-x="562" 
d="M42 203l1 6q0 3 1 6l22 15q23 14 53 34t41.5 27t15.5 -5q11 -30 56 -169t58 -173h2q124 709 143 856l34 14q-25 -160 -81 -475.5t-84 -456.5l-31 -44q-33 81 -77 206t-60 180q-4 15 -20 9z" />
    <glyph glyph-name="infinity" unicode="&#x221e;" horiz-adv-x="801" 
d="M224 484q35 0 70 -22.5t56 -46.5q26 -30 57 -71q70 73 101 94q65 46 148 46q61 0 93.5 -40t32.5 -108.5t-58 -132t-118.5 -63.5t-112.5 38t-108 109q-32 -35 -53 -55.5t-54 -44.5q-63 -47 -141 -47q-46 0 -88.5 32.5t-42.5 107.5t64.5 139.5t153.5 64.5zM367 306
q-98 126 -177 126t-113 -42t-34 -94q0 -32 38.5 -66.5t97.5 -34.5q99 0 188 111zM713 226q32 32 32 81.5t-35 87t-91 37.5t-102 -28t-95 -78q73 -79 115.5 -105.5t93 -26.5t82.5 32z" />
    <glyph glyph-name="integral" unicode="&#x222b;" horiz-adv-x="478" 
d="M433 923q23 0 45 -19t36 -47l-48 -49q-48 64 -79 64q-15 0 -24 -19.5t-26 -120.5q-59 -351 -94 -578q-36 -214 -113 -286q-30 -28 -64 -28q-39 0 -81 60l70 42q29 -53 52 -53q36 0 57 121t65.5 390.5t58 348.5t57 126.5t88.5 47.5z" />
    <glyph glyph-name="approxequal" unicode="&#x2248;" horiz-adv-x="750" 
d="M274 466q31 0 125.5 -30.5t163.5 -30.5q42 0 100 28l13 -12q-54 -67 -138 -67q-62 0 -148 29t-126 29q-100 0 -175 -55l-9 18q115 91 194 91zM274 252q31 0 125.5 -30.5t163.5 -30.5q42 0 100 28l13 -12q-54 -67 -138 -67q-62 0 -148 29t-126 29q-100 0 -175 -55l-9 18
q115 91 194 91z" />
    <glyph glyph-name="notequal" unicode="&#x2260;" horiz-adv-x="632" 
d="M332 363h269l-54 -54h-215v-134h232l-54 -54h-178v-86l-54 -54v140h-249l54 54h195v134h-212l54 54h158v99l54 54v-153z" />
    <glyph glyph-name="lessequal" unicode="&#x2264;" horiz-adv-x="701" 
d="M145 59h481l-54 -54h-481zM540 649l39 -40q-184 -70 -369 -180v-18q189 -115 381 -202l-35 -30q-286 125 -447 240v10q213 140 431 220z" />
    <glyph glyph-name="greaterequal" unicode="&#x2265;" horiz-adv-x="687" 
d="M55 5l54 54h481l-54 -54h-481zM127 599l39 40q218 -80 431 -220v-10q-161 -115 -447 -240l-35 30q192 87 381 202v18q-185 110 -369 180z" />
    <glyph glyph-name="lozenge" unicode="&#x25ca;" horiz-adv-x="524" 
d="M270 639q2 0 4 -6q15 -66 67.5 -176t97.5 -180q-101 -155 -168 -317q-17 -21 -29.5 -29.5t-14.5 -8.5q-7 0 -8 6q-17 64 -70 173t-95 173q102 163 172 330q4 9 23 22t21 13zM252 3q26 41 67 136t62 132q-56 84 -139 283q-24 -41 -66 -134.5t-64 -134.5v-5
q68 -99 140 -277z" />
    <glyph glyph-name="ff" unicode="&#xfb00;" horiz-adv-x="492" 
d="M352 851h49l-40 -53h-64q-48 0 -75 -43q-21 -33 -27.5 -57t-10 -37.5t-7 -36.5t-4.5 -33.5t-3 -33t-3 -30.5t-3.5 -26.5t-3.5 -26.5q107 13 185 21q2 25 10 75q17 127 82.5 204t151.5 77h49l-40 -53h-50q-58 0 -86 -42q-32 -47 -39.5 -89t-10.5 -63q-6 -44 -11 -103
l139 14l-19 -47q-19 -2 -58.5 -6t-68.5 -8q-10 -87 -34 -249.5t-29.5 -200.5t-8.5 -58.5t-5 -31t-7 -26.5q-10 -32 -34 -59l5 -5q8 4 78 48l8 -17l-209 -123l-11 21q54 23 83 55q21 22 28 69q2 14 5.5 44.5t9.5 69t63 459.5q-112 -14 -181 -21q-17 -140 -47 -354
q-21 -144 -82.5 -217t-156.5 -73q-21 0 -44 6l38 55q30 -8 61 -8q95 0 115 154q34 268 56 430q-84 -9 -93 -10q22 45 23 45q27 3 77 9q9 68 16 104q17 126 83 203.5t151 77.5z" />
    <glyph glyph-name="fi" unicode="&#xfb01;" horiz-adv-x="451" 
d="M327 851h49l-40 -53h-50q-32 0 -56.5 -15t-38 -35.5t-23.5 -53.5t-13 -57t-7 -59.5t-7 -51t-4 -28.5l244 17q-6 -39 -21 -151q-30 -228 -59 -309l2 -3q86 61 210 234l11 -7q-72 -105 -145 -186.5t-123 -102.5q-2 24 -2 57t8 91t28.5 166t32.5 180q-16 -8 -80.5 -17
t-110.5 -13q-10 -87 -34 -249.5t-29.5 -200.5t-8.5 -58.5t-5 -31t-7 -26.5q-10 -32 -34 -59l5 -5q8 4 78 48l8 -17l-209 -123l-11 21q54 23 83 55q21 22 28 69q2 14 5.5 44.5t9.5 69t63 459.5l-89 -7q21 43 22 43q35 5 76 9q6 50 10 75q17 126 83 203.5t151 77.5z" />
    <glyph glyph-name="fl" unicode="&#xfb02;" horiz-adv-x="465" 
d="M508 839q22 10 61 12h1q29 0 49 -5l-41 -54q-28 6 -55 6t-43 -8.5t-27 -21t-21 -34t-16 -39t-11.5 -45l-8.5 -42.5q-8 -50 -13 -85.5t-18 -146.5q-28 -239 -62 -322l3 -2q96 69 228 259l10 -6q-75 -112 -153.5 -202.5t-131.5 -112.5q-2 24 -2 38q0 77 61 454
q-49 -17 -186 -28q-10 -87 -34 -249.5t-29.5 -200.5t-8.5 -58.5t-5 -31t-7 -26.5q-10 -32 -34 -59l5 -5q8 4 78 48l8 -17l-209 -123l-11 21q54 23 83 55q21 22 28 69q2 14 5.5 44.5t9.5 69t63 459.5l-89 -7q21 43 22 43q35 5 76 9q23 193 89.5 274.5t214.5 81.5
q76 0 121 -12zM137 498q28 2 185 13q8 43 15.5 96t43 111.5t84.5 94.5q-112 -1 -164 -9q-83 -13 -113 -59q-18 -27 -30 -95q-3 -22 -9.5 -72t-11.5 -80z" />
    <glyph glyph-name="ffi" unicode="&#xfb03;" horiz-adv-x="717" 
d="M352 851h49l-40 -53h-64q-52 0 -77 -45q-28 -50 -36 -92q-12 -70 -14 -99t-4.5 -48.5t-4.5 -36.5q48 6 112 11.5t72 6.5q6 50 10 75q17 126 83 203.5t151 77.5q56 0 83 -15l-41 -54q-36 16 -75.5 16t-64 -15t-38 -35.5t-23.5 -53.5t-13 -57t-7 -59.5t-7 -51t-4 -28.5
l244 17q-6 -39 -21 -151q-30 -228 -59 -309l2 -3q86 61 210 234l11 -7q-72 -105 -145 -186.5t-123 -102.5q-2 24 -2 57t8 91t28.5 166t32.5 180q-16 -8 -80.5 -17t-110.5 -13q-12 -102 -36.5 -261t-29 -192t-7 -55.5t-4.5 -31.5t-7 -26q-9 -31 -34 -59l5 -5q8 4 78 48l8 -17
l-209 -123l-11 21q54 23 83 55q21 22 28 69q2 14 5.5 44.5t9.5 69t63 459.5q-14 -1 -78 -5.5t-102 -8.5q-10 -89 -48 -361q-21 -144 -82.5 -217t-156.5 -73q-21 0 -44 6l38 55q30 -8 61 -8q95 0 115 154q8 62 59 437q-11 -1 -96 -13q21 43 22 43q64 9 80 11l14 100
q17 126 83 203.5t151 77.5z" />
    <glyph glyph-name="ffl" unicode="&#xfb04;" horiz-adv-x="729" 
d="M178.5 630.5q-4.5 -31.5 -7 -58t-10.5 -94.5q133 10 194 17q23 193 89.5 274.5t214.5 81.5q76 0 121 -12q22 10 52 11l10 1q29 0 49 -5l-41 -54q-28 6 -55 6t-43 -8.5t-27 -21t-21 -34t-16 -39t-11.5 -45l-8.5 -42.5q-8 -50 -13 -85.5t-18 -146.5q-28 -239 -62 -322l3 -2
q96 69 228 259l10 -6q-75 -112 -153.5 -202.5t-131.5 -112.5q-2 24 -2 38q0 77 61 454q-49 -17 -186 -28q-12 -102 -36.5 -261t-29 -192t-7 -55.5t-4.5 -31.5t-7 -26q-9 -31 -34 -59l5 -5q8 4 78 48l8 -17l-209 -123l-11 21q54 23 83 55q21 22 28 69q2 14 5.5 44.5t9.5 69
t63 459.5q-48 -5 -190 -17q-11 -96 -48 -358q-21 -144 -82.5 -217t-156.5 -73q-21 0 -44 6l38 55q30 -8 61 -8q95 0 115 154q10 80 59 436q-53 -5 -97 -7q20 47 21 47q39 3 82 6l14 96q20 146 101 224q30 29 71 43t111 14l-40 -53q-61 0 -85 -5t-42.5 -22t-34.5 -63
t-20.5 -77.5zM409 498q28 2 185 13q8 43 15.5 96t43 111.5t84.5 94.5q-112 -1 -164 -9q-83 -13 -113 -59q-18 -27 -30 -95q-3 -22 -9.5 -72t-11.5 -80z" />
  </font>
</defs>
</svg>
